<svg width="48" height="48" viewBox="0 0 48 48" fill="none" xmlns="http://www.w3.org/2000/svg">
<path fill-rule="evenodd" clip-rule="evenodd" d="M21.3706 5.25554C21.2215 5.25554 21.0786 5.31468 20.9731 5.42003C20.8677 5.52556 20.8086 5.66848 20.8086 5.81734V8.5314C20.8086 8.84152 21.0601 9.0932 21.3704 9.0932H26.5672C26.8774 9.0932 27.129 8.84152 27.129 8.5314V5.32781C27.129 5.02902 26.8951 4.78255 26.5966 4.76673C26.5643 4.76511 26.5321 4.76349 26.4999 4.76205C23.6201 4.63028 21.5034 5.23109 21.5034 5.23109C21.4961 5.23325 21.4889 5.2354 21.4817 5.23774C21.4448 5.24979 21.4072 5.25572 21.3706 5.25554Z" fill="#5B5B81"/>
<path fill-rule="evenodd" clip-rule="evenodd" d="M17.9415 12.147C17.9223 12.3066 17.9725 12.4668 18.0791 12.5871C18.1857 12.7072 18.3387 12.776 18.4994 12.776H29.436C29.5967 12.776 29.7497 12.7072 29.8563 12.5871C29.9629 12.4668 30.0129 12.3066 29.9937 12.147L29.8103 10.6254C29.6278 9.10986 28.3419 7.96973 26.8154 7.96973C25.1297 7.96973 22.8055 7.96973 21.1198 7.96973C19.5935 7.96973 18.3076 9.10986 18.1249 10.6254L17.9415 12.147Z" fill="#8BD0F7"/>
<path fill-rule="evenodd" clip-rule="evenodd" d="M21.8188 6.31111C21.9541 6.27425 23.874 5.76711 26.4512 5.88504C27.8226 5.94778 29.3665 6.22823 30.9305 6.81951C30.9413 6.82365 30.9521 6.82724 30.963 6.83066C32.03 7.1609 33.1644 6.56279 33.4946 5.49601C33.8249 4.42904 33.2268 3.29466 32.1598 2.96441C32.1488 2.96099 32.1379 2.95794 32.1267 2.95524C30.0962 2.46068 28.1411 2.37133 26.4286 2.47255C23.2998 2.65753 21.0362 3.44477 20.9039 3.49169C20.1323 3.74895 19.7113 4.58275 19.964 5.3574C20.2163 6.13025 21.0452 6.55524 21.8188 6.31111Z" fill="#383856"/>
<path fill-rule="evenodd" clip-rule="evenodd" d="M36.8079 15.9596C36.8079 13.5808 34.8796 11.6523 32.5009 11.6523C27.8788 11.6523 20.066 11.6523 15.444 11.6523C13.0652 11.6523 11.1367 13.5808 11.1367 15.9596C11.1367 22.2582 11.1367 34.8996 11.1367 41.1984C11.1367 43.5772 13.0652 45.5055 15.444 45.5055C20.066 45.5055 27.8788 45.5055 32.5009 45.5055C34.8796 45.5055 36.8079 43.5772 36.8079 41.1984C36.8079 34.8996 36.8079 22.2582 36.8079 15.9596Z" fill="#EDF4FA"/>
<path fill-rule="evenodd" clip-rule="evenodd" d="M36.4346 27.499C36.657 27.4184 36.805 27.2074 36.805 26.9708V23.3304C36.805 23.1749 36.7404 23.0262 36.6268 22.9199C36.513 22.8137 36.3604 22.7594 36.2051 22.7698C31.4345 23.0949 24.7331 24.1845 19.1122 27.4424C18.9492 27.5369 18.8443 27.7068 18.833 27.895C18.8219 28.0831 18.9056 28.2643 19.0563 28.3775C19.3328 28.5854 19.6603 28.7313 20.0206 28.793C20.0217 28.7932 20.0228 28.7934 20.0239 28.7936C20.5387 28.8788 21.0827 28.9564 21.6585 29.022C28.2932 29.7785 33.3389 28.6204 36.4346 27.499Z" fill="#6FC0EE"/>
<path d="M19.5235 18.6212C20.428 18.6212 21.1612 17.888 21.1612 16.9835C21.1612 16.0789 20.428 15.3457 19.5235 15.3457C18.619 15.3457 17.8857 16.0789 17.8857 16.9835C17.8857 17.888 18.619 18.6212 19.5235 18.6212Z" fill="#6FC0EE"/>
<path d="M24.1298 24.5311C25.4744 24.5311 26.5643 23.4412 26.5643 22.0966C26.5643 20.7521 25.4744 19.6621 24.1298 19.6621C22.7853 19.6621 21.6953 20.7521 21.6953 22.0966C21.6953 23.4412 22.7853 24.5311 24.1298 24.5311Z" fill="#6FC0EE"/>
<path fill-rule="evenodd" clip-rule="evenodd" d="M13.3492 25.4885C12.8201 25.2538 12.3405 25.0458 11.8853 24.8854C11.7134 24.8248 11.5227 24.8514 11.374 24.9566C11.2252 25.0619 11.1367 25.2329 11.1367 25.4152V41.1989C11.1367 43.5777 13.0652 45.506 15.444 45.506C20.066 45.506 27.8788 45.506 32.5009 45.506C34.8796 45.506 36.8079 43.5777 36.8079 41.1989V26.9717C36.8079 26.7885 36.7187 26.617 36.5688 26.5118C36.4189 26.4067 36.2271 26.3811 36.0548 26.4435C33.0661 27.5261 28.194 28.6369 21.7888 27.9065C21.2334 27.8432 20.709 27.7685 20.2123 27.6863C19.6798 27.5946 19.2906 27.1326 19.2908 26.5922C19.2908 24.9471 17.9551 23.6113 16.3099 23.6113C15.108 23.6113 14.0733 24.3232 13.6489 25.3665C13.6261 25.4226 13.5811 25.4673 13.5245 25.4903C13.4691 25.513 13.4071 25.5126 13.3519 25.4896L13.3492 25.4885Z" fill="#8BD0F7"/>
<path fill-rule="evenodd" clip-rule="evenodd" d="M32.6357 39.5973V34.8851C32.6357 33.7474 31.7135 32.8252 30.5759 32.8252C27.489 32.8252 20.4515 32.8252 17.3647 32.8252C16.2269 32.8252 15.3047 33.7474 15.3047 34.8851V39.5973C15.3047 40.7349 16.2269 41.6572 17.3647 41.6572C20.4515 41.6572 27.489 41.6572 30.5759 41.6572C31.7135 41.6572 32.6357 40.7349 32.6357 39.5973Z" fill="#EDF4FA"/>
<path fill-rule="evenodd" clip-rule="evenodd" d="M19.7718 36.4634H28.1664C28.4763 36.4634 28.7282 36.2118 28.7282 35.9016C28.7282 35.5915 28.4763 35.3398 28.1664 35.3398H19.7718C19.4616 35.3398 19.21 35.5915 19.21 35.9016C19.21 36.2118 19.4616 36.4634 19.7718 36.4634Z" fill="#383856"/>
<path fill-rule="evenodd" clip-rule="evenodd" d="M19.7718 39.1422H28.1664C28.4763 39.1422 28.7282 38.8903 28.7282 38.5804C28.7282 38.2702 28.4763 38.0186 28.1664 38.0186H19.7718C19.4616 38.0186 19.21 38.2702 19.21 38.5804C19.21 38.8903 19.4616 39.1422 19.7718 39.1422Z" fill="#383856"/>
</svg>
