<svg width="40" height="40" viewBox="0 0 40 40" fill="none" xmlns="http://www.w3.org/2000/svg">
<path fill-rule="evenodd" clip-rule="evenodd" d="M18.2373 37.6096C18.4048 37.5293 18.5089 37.3578 18.5029 37.1723C18.4969 36.9867 18.3819 36.8222 18.2097 36.753C17.812 36.5931 17.4464 36.3534 17.1374 36.0444C16.535 35.4421 16.1967 34.6253 16.1967 33.7736V20.5826C16.1967 19.0107 16.4451 17.4486 16.9326 15.954L17.192 15.1584C17.2436 15.0003 17.2075 14.8267 17.0971 14.7023C16.9865 14.578 16.8184 14.5215 16.6554 14.5542C16.5991 14.5654 16.541 14.5711 16.4815 14.5711C16.4813 14.5711 9.7119 14.5711 9.7119 14.5711C9.62126 14.5711 9.53392 14.5576 9.45152 14.5324C9.21047 14.4584 8.95414 14.5886 8.87175 14.827L8.86051 14.8604C8.31579 16.5302 7.3468 19.501 6.73392 21.3799C6.3486 22.5611 6.15234 23.7957 6.15234 25.0381C6.15234 27.489 6.15234 31.8951 6.15234 34.7453C6.15234 35.5877 6.48688 36.3955 7.08253 36.9912C7.67819 37.5867 8.48598 37.9214 9.32822 37.9214C11.5407 37.9214 14.6527 37.9214 16.865 37.9214C17.3446 37.9214 17.813 37.8129 18.2373 37.6096Z" fill="#D6DFFC"/>
<path fill-rule="evenodd" clip-rule="evenodd" d="M15.9126 27.4907C16.0841 27.4167 16.1951 27.2477 16.1951 27.061V25.1685C16.1951 24.949 16.0428 24.759 15.8285 24.7114C13.5256 24.1999 9.86643 24.0507 8.48501 24.1039C8.24261 24.1133 8.04741 24.3063 8.03542 24.5487C8.02748 24.7115 8.02344 24.8747 8.02344 25.0378V28.4279C8.02344 28.5538 8.07407 28.6744 8.16396 28.7625C8.254 28.8506 8.37565 28.8987 8.50149 28.896C9.94269 28.8657 13.7903 28.4076 15.9126 27.4907Z" fill="#39A4F9"/>
<path fill-rule="evenodd" clip-rule="evenodd" d="M16.8389 15.4726C17.0051 15.4395 17.1404 15.3195 17.1928 15.1586L18.0631 12.4907C18.107 12.3562 18.0876 12.2091 18.0105 12.0904C17.6857 11.5909 17.1224 11.2607 16.4822 11.2607H9.71265C8.70636 11.2607 7.89062 12.0765 7.89062 13.0828V13.6855C7.89062 14.6918 8.70636 15.5075 9.71265 15.5075H16.4822C16.6043 15.5075 16.7236 15.4955 16.8389 15.4726Z" fill="#383856"/>
<path fill-rule="evenodd" clip-rule="evenodd" d="M16.1951 27.061C16.1951 26.9034 16.1159 26.7563 15.9842 26.6697C15.8525 26.5831 15.6861 26.5687 15.5413 26.6312C13.5202 27.5041 9.8543 27.931 8.48171 27.9599C8.22703 27.9651 8.02344 28.1732 8.02344 28.4279V34.745C8.02344 35.0908 8.16067 35.4222 8.40516 35.6667C8.64951 35.911 8.98104 36.0484 9.32666 36.0484H16.2013C16.3676 36.0484 16.5216 35.96 16.6055 35.8163C16.6894 35.6727 16.6907 35.4953 16.6091 35.3503C16.34 34.8733 16.1951 34.3308 16.1951 33.7733V27.061Z" fill="#1B8CE5"/>
<path fill-rule="evenodd" clip-rule="evenodd" d="M19.5272 6.46702C19.2861 6.39301 19.0298 6.5232 18.9474 6.76155L18.933 6.80425C18.1929 9.07316 16.8761 13.1102 16.0433 15.6634C15.5252 17.2516 15.2612 18.9118 15.2612 20.5824C15.2612 23.9127 15.2612 29.9003 15.2612 33.7734C15.2612 34.8735 15.6982 35.9284 16.4761 36.7063C17.2539 37.4841 18.3089 37.9211 19.4089 37.9211C22.4152 37.9211 26.6443 37.9211 29.6506 37.9211C30.7507 37.9211 31.8057 37.4841 32.5835 36.7063C33.3613 35.9284 33.7983 34.8735 33.7983 33.7734C33.7983 29.9003 33.7983 23.9127 33.7983 20.5824C33.7983 18.9118 33.5343 17.2516 33.0163 15.6634C32.1835 13.1102 30.8666 9.07316 30.1266 6.80425C30.1218 6.78986 30.1171 6.77563 30.1122 6.76155C30.0298 6.5232 29.7734 6.39301 29.5324 6.46702C29.4049 6.50612 29.2695 6.52709 29.1292 6.52709H19.9303C19.7901 6.52709 19.6546 6.50612 19.5272 6.46702Z" fill="#EAEFFE"/>
<path fill-rule="evenodd" clip-rule="evenodd" d="M19.4476 19.3292C19.4468 19.3387 19.4465 19.3486 19.4465 19.3585C19.4465 19.3885 19.4345 19.4171 19.4131 19.4381C19.3918 19.459 19.3629 19.4704 19.3329 19.47C19.3329 19.47 19.3328 19.47 19.3326 19.47C18.9565 19.4629 18.586 19.4677 18.2222 19.4827C17.9801 19.4928 17.7857 19.6856 17.7738 19.9275C17.7632 20.1453 17.7578 20.3636 17.7578 20.582V25.1895C17.7578 25.3151 17.8081 25.4354 17.8976 25.5233C17.987 25.6113 18.1081 25.6598 18.2335 25.6577C20.5367 25.6204 22.8589 24.8084 25.2591 23.117C25.7674 22.7587 26.335 22.4971 26.9359 22.3107C27.1162 22.2548 27.2452 22.0963 27.2633 21.9085C27.2814 21.7206 27.1849 21.5404 27.0186 21.4511C25.8796 20.8397 24.738 20.3949 23.6177 20.0706C23.6149 20.0698 23.612 20.0691 23.6092 20.0683C23.5837 20.0614 23.5622 20.0447 23.5493 20.0217C23.5364 19.9988 23.5332 19.9716 23.5406 19.9464C23.595 19.7612 23.6246 19.5632 23.6246 19.3582C23.6246 18.2054 22.6887 17.2695 21.5359 17.2695C20.3929 17.2695 19.463 18.1898 19.4476 19.3292Z" fill="#39A4F9"/>
<path fill-rule="evenodd" clip-rule="evenodd" d="M31.4371 5.15521V4.33619C31.4371 3.06158 30.4036 2.02832 29.129 2.02832C26.6811 2.02832 22.378 2.02832 19.9301 2.02832C18.6555 2.02832 17.6221 3.06158 17.6221 4.33619V5.15521C17.6221 6.42982 18.6555 7.46323 19.9301 7.46323C22.378 7.46323 26.6811 7.46323 29.129 7.46323C30.4036 7.46323 31.4371 6.42982 31.4371 5.15521Z" fill="#383856"/>
<path fill-rule="evenodd" clip-rule="evenodd" d="M18.2183 24.7223C17.9628 24.7264 17.7578 24.9347 17.7578 25.1903V33.7738C17.7578 34.2116 17.9317 34.6315 18.2413 34.9412C18.5509 35.2507 18.9708 35.4246 19.4086 35.4246C22.4149 35.4246 26.644 35.4246 29.6502 35.4246C30.088 35.4246 30.5079 35.2507 30.8176 34.9412C31.1271 34.6315 31.301 34.2116 31.301 33.7738V21.4766C31.301 21.2293 31.1087 21.0246 30.8619 21.0093C28.7135 20.8759 26.4269 21.1494 24.7198 22.3524C22.4965 23.919 20.3517 24.6877 18.2183 24.7223Z" fill="#1B8CE5"/>
<path fill-rule="evenodd" clip-rule="evenodd" d="M23.6165 11.1401C23.4836 10.8604 23.2016 10.6816 22.8913 10.6816C22.581 10.6815 22.2986 10.8601 22.1656 11.1398C21.799 11.8722 21.2812 13.0637 21.2812 13.6933C21.2812 14.4689 21.9839 15.1377 22.8913 15.1377C23.7987 15.1377 24.5015 14.4689 24.5015 13.6933C24.5015 13.0637 23.9839 11.8725 23.6165 11.1401Z" fill="#39A4F9"/>
<path fill-rule="evenodd" clip-rule="evenodd" d="M28.6249 13.9327C28.4899 13.6579 28.2104 13.4835 27.9038 13.4834C27.5972 13.4832 27.3173 13.6576 27.1822 13.9322C26.7462 14.7889 26.0474 16.334 26.0474 17.1303C26.0474 18.0221 26.8604 18.7851 27.9038 18.7851C28.9471 18.7851 29.7602 18.0221 29.7602 17.1303C29.7602 16.3342 29.0614 14.7892 28.6249 13.9327Z" fill="#39A4F9"/>
</svg>
