<svg width="48" height="48" viewBox="0 0 48 48" fill="none" xmlns="http://www.w3.org/2000/svg">
<path fill-rule="evenodd" clip-rule="evenodd" d="M25.5465 11.6328C25.4567 11.663 25.3681 11.6768 25.2791 11.6756C25.2786 11.6756 25.2782 11.6756 25.2779 11.6756C24.7989 11.6698 24.3348 11.6993 23.8886 11.7645C23.6128 11.805 23.4082 12.0418 23.4082 12.3206C23.4084 12.5994 23.613 12.836 23.8889 12.8765C25.0708 13.049 26.105 13.5134 26.8949 14.3033C27.9456 15.3538 28.4194 16.8337 28.4024 18.5214C28.3995 18.7546 28.4394 18.987 28.5201 19.2065L28.5465 19.2853C28.6467 19.5256 28.7946 19.7433 28.9814 19.9249C30.1881 21.1033 30.8989 22.4845 30.8989 23.9697C30.8989 25.4548 30.1884 26.8356 28.9834 28.0171C28.8164 28.18 28.6801 28.3725 28.5816 28.5849L28.5444 28.6593C28.4448 28.8998 28.3955 29.1582 28.3991 29.4185C28.4196 31.1053 27.9456 32.5854 26.8949 33.6362C26.1048 34.4263 25.0704 34.8907 23.8882 35.0645C23.6126 35.1051 23.4084 35.3415 23.4082 35.6202C23.4082 35.8988 23.6124 36.1354 23.888 36.176C24.3335 36.2418 24.7968 36.272 25.2746 36.2672C25.2752 36.2672 25.2755 36.2672 25.2761 36.2672C25.3845 36.2658 25.4918 36.2864 25.5919 36.328C25.6076 36.3346 25.6236 36.3404 25.6396 36.3452C25.7253 36.3878 25.7985 36.4414 25.8612 36.5059C25.8616 36.5063 25.8618 36.5065 25.8621 36.5068C27.271 37.9493 28.9374 38.7637 30.7116 38.7637C32.4851 38.7637 34.1505 37.9502 35.5614 36.5111C35.5615 36.511 35.5619 36.5106 35.5623 36.5102C35.6385 36.432 35.7298 36.3702 35.8309 36.3283C35.8467 36.3217 35.862 36.3145 35.8769 36.3067C35.9664 36.2765 36.055 36.2627 36.1442 36.264C36.1446 36.264 36.1451 36.264 36.1455 36.264C38.1622 36.2882 39.9173 35.6858 41.1725 34.4306C42.4272 33.1761 43.0294 31.4222 43.0091 29.4066C43.0091 29.4062 43.0091 29.4057 43.0091 29.4053C43.0077 29.2969 43.0283 29.1894 43.0699 29.0895C43.0765 29.0737 43.0823 29.0578 43.0871 29.0418C43.1297 28.9561 43.1833 28.8829 43.2478 28.8202C43.2482 28.8198 43.2484 28.8195 43.2487 28.8193C44.6913 27.4104 45.5056 25.744 45.5056 23.9697C45.5056 22.1964 44.6922 20.5307 43.2531 19.12C43.2529 19.1197 43.2525 19.1195 43.2522 19.1191C43.174 19.0427 43.1121 18.9514 43.0702 18.8506C43.0636 18.8347 43.0564 18.8195 43.0486 18.8045C43.0184 18.7148 43.0046 18.6262 43.0059 18.5372C43.0059 18.5367 43.0059 18.5363 43.0059 18.536C43.0301 16.5191 42.4277 14.7639 41.1725 13.5087C39.918 12.2543 38.1642 11.6518 36.1485 11.6723C36.1482 11.6723 36.1476 11.6723 36.1473 11.6723C36.0389 11.6738 35.9313 11.6529 35.8314 11.6114C35.8156 11.6049 35.7998 11.5992 35.7838 11.5941C35.698 11.5515 35.6248 11.4981 35.5621 11.4336C35.5617 11.4332 35.5614 11.4329 35.5612 11.4327C34.1523 9.98998 32.486 9.17578 30.7116 9.17578C28.9383 9.17578 27.2727 9.98926 25.862 11.4282C25.8616 11.4285 25.8614 11.4289 25.8611 11.4293C25.7847 11.5075 25.6933 11.5693 25.5925 11.6112C25.5767 11.6177 25.5614 11.625 25.5465 11.6328Z" fill="#B37A3D"/>
<path fill-rule="evenodd" clip-rule="evenodd" d="M12.1574 11.5939C12.141 11.599 12.1248 11.6047 12.1088 11.6114C12.0087 11.6529 11.9014 11.6738 11.793 11.6723C11.7924 11.6723 11.7921 11.6723 11.7915 11.6723C9.77605 11.6518 8.02217 12.2543 6.76751 13.5087C5.51232 14.7639 4.9099 16.5191 4.93435 18.536C4.93435 18.5363 4.93435 18.5367 4.93435 18.5372C4.9356 18.6278 4.92122 18.7181 4.8921 18.8036C4.88401 18.8187 4.87664 18.8344 4.86999 18.8506C4.8281 18.9514 4.76626 19.0427 4.68805 19.1191C4.68769 19.1195 4.68733 19.1197 4.68697 19.12C3.24805 20.5307 2.43457 22.1964 2.43457 23.9697C2.43457 25.744 3.24877 27.4104 4.69147 28.8193C4.69165 28.8195 4.69201 28.8198 4.69237 28.8202C4.75817 28.884 4.81228 28.9588 4.85273 29.0409C4.85776 29.0571 4.86351 29.0735 4.87017 29.0895C4.91169 29.1894 4.93255 29.2969 4.93111 29.4053C4.93111 29.4057 4.93111 29.4062 4.93111 29.4066C4.91061 31.4222 5.51304 33.1761 6.76751 34.4306C8.0227 35.6858 9.77785 36.2882 11.7947 36.264C11.7951 36.264 11.7955 36.264 11.796 36.264C11.8866 36.2627 11.9769 36.2769 12.0624 36.3062C12.0775 36.3143 12.0932 36.3217 12.1094 36.3283C12.2102 36.3702 12.3015 36.432 12.3779 36.5102C12.3783 36.5106 12.3785 36.511 12.3788 36.5111C13.7895 37.9502 15.4552 38.7637 17.2285 38.7637C19.0028 38.7637 20.6692 37.9493 22.0781 36.5068C22.0783 36.5065 22.0786 36.5063 22.079 36.5059C22.1428 36.4401 22.2176 36.386 22.2997 36.3456C22.3159 36.3405 22.3323 36.3346 22.3483 36.328C22.4482 36.2864 22.5557 36.2658 22.6641 36.2672C22.6645 36.2672 22.665 36.2672 22.6654 36.2672C24.681 36.2875 26.4349 35.6853 27.6894 34.4306C28.9446 33.1754 29.547 31.4203 29.5227 29.4036C29.5227 29.4032 29.5227 29.4027 29.5227 29.4023C29.5215 29.3117 29.5357 29.2214 29.565 29.1359C29.5731 29.1206 29.5805 29.1049 29.5871 29.0889C29.629 28.9879 29.6908 28.8966 29.769 28.8204C29.7694 28.82 29.7698 28.8196 29.7699 28.8195C31.209 27.4086 32.0225 25.7431 32.0225 23.9697C32.0225 22.1955 31.2081 20.5291 29.7656 19.1202C29.7653 19.1199 29.7651 19.1197 29.7647 19.1193C29.6989 19.0553 29.6448 18.9807 29.6044 18.8986C29.5993 18.8822 29.5934 18.866 29.5867 18.85C29.5452 18.7499 29.5245 18.6426 29.526 18.5342C29.526 18.5336 29.526 18.5333 29.526 18.5327C29.5463 16.5173 28.9441 14.7634 27.6894 13.5087C26.4342 12.2535 24.6791 11.6511 22.6623 11.6756C22.662 11.6756 22.6614 11.6756 22.6611 11.6756C22.5705 11.6768 22.4802 11.6624 22.3947 11.6333C22.3794 11.6252 22.3637 11.6178 22.3477 11.6112C22.2467 11.5693 22.1554 11.5075 22.0792 11.4293C22.0788 11.4289 22.0784 11.4285 22.0783 11.4282C20.6674 9.98926 19.0019 9.17578 17.2285 9.17578C15.4543 9.17578 13.7879 9.98998 12.379 11.4327C12.3787 11.4329 12.3785 11.4332 12.3781 11.4336C12.3141 11.4994 12.2395 11.5535 12.1574 11.5939Z" fill="#D3934F"/>
<path d="M13.1092 21.1609C14.8674 21.1609 16.2927 19.7356 16.2927 17.9774C16.2927 16.2192 14.8674 14.7939 13.1092 14.7939C11.3511 14.7939 9.92578 16.2192 9.92578 17.9774C9.92578 19.7356 11.3511 21.1609 13.1092 21.1609Z" fill="#964229"/>
<path d="M34.8329 21.1609C36.5911 21.1609 38.0163 19.7356 38.0163 17.9774C38.0163 16.2192 36.5911 14.7939 34.8329 14.7939C33.0747 14.7939 31.6494 16.2192 31.6494 17.9774C31.6494 19.7356 33.0747 21.1609 34.8329 21.1609Z" fill="#7D3F2D"/>
<path d="M13.1077 31.3395C14.2453 31.3395 15.1676 30.4172 15.1676 29.2796C15.1676 28.142 14.2453 27.2197 13.1077 27.2197C11.9701 27.2197 11.0479 28.142 11.0479 29.2796C11.0479 30.4172 11.9701 31.3395 13.1077 31.3395Z" fill="#964229"/>
<path d="M34.8313 31.3395C35.969 31.3395 36.8912 30.4172 36.8912 29.2796C36.8912 28.142 35.969 27.2197 34.8313 27.2197C33.6937 27.2197 32.7715 28.142 32.7715 29.2796C32.7715 30.4172 33.6937 31.3395 34.8313 31.3395Z" fill="#7D3F2D"/>
<path d="M22.6673 21.5348C23.8049 21.5348 24.7272 20.6125 24.7272 19.4749C24.7272 18.3373 23.8049 17.415 22.6673 17.415C21.5297 17.415 20.6074 18.3373 20.6074 19.4749C20.6074 20.6125 21.5297 21.5348 22.6673 21.5348Z" fill="#964229"/>
<path d="M23.971 30.9283C25.1086 30.9283 26.0309 30.0061 26.0309 28.8685C26.0309 27.7308 25.1086 26.8086 23.971 26.8086C22.8334 26.8086 21.9111 27.7308 21.9111 28.8685C21.9111 30.0061 22.8334 30.9283 23.971 30.9283Z" fill="#964229"/>
<path d="M17.9769 26.0299C19.1145 26.0299 20.0367 25.1077 20.0367 23.97C20.0367 22.8324 19.1145 21.9102 17.9769 21.9102C16.8392 21.9102 15.917 22.8324 15.917 23.97C15.917 25.1077 16.8392 26.0299 17.9769 26.0299Z" fill="#964229"/>
</svg>
