<svg width="28" height="28" viewBox="0 0 28 28" fill="none" xmlns="http://www.w3.org/2000/svg">
<path d="M4.66631 7.48297L0.882812 3.70064L2.53365 2.0498L6.31598 5.8333H24.0983C24.2802 5.83329 24.4595 5.87579 24.622 5.9574C24.7845 6.03901 24.9257 6.15748 25.0343 6.30335C25.1428 6.44922 25.2158 6.61845 25.2474 6.79754C25.2789 6.97663 25.2682 7.16061 25.216 7.3348L22.416 16.6681C22.3439 16.9086 22.1963 17.1194 21.9949 17.2692C21.7936 17.4191 21.5493 17.5 21.2983 17.5H6.99965V19.8333H19.833V22.1666H5.83298C5.52356 22.1666 5.22681 22.0437 5.00802 21.8249C4.78923 21.6061 4.66631 21.3094 4.66631 21V7.48297ZM6.99965 8.16664V15.1666H20.4303L22.5303 8.16664H6.99965ZM6.41631 26.8333C5.95218 26.8333 5.50706 26.6489 5.17888 26.3207C4.85069 25.9926 4.66631 25.5474 4.66631 25.0833C4.66631 24.6192 4.85069 24.1741 5.17888 23.8459C5.50706 23.5177 5.95218 23.3333 6.41631 23.3333C6.88044 23.3333 7.32556 23.5177 7.65375 23.8459C7.98194 24.1741 8.16631 24.6192 8.16631 25.0833C8.16631 25.5474 7.98194 25.9926 7.65375 26.3207C7.32556 26.6489 6.88044 26.8333 6.41631 26.8333ZM20.4163 26.8333C19.9522 26.8333 19.5071 26.6489 19.1789 26.3207C18.8507 25.9926 18.6663 25.5474 18.6663 25.0833C18.6663 24.6192 18.8507 24.1741 19.1789 23.8459C19.5071 23.5177 19.9522 23.3333 20.4163 23.3333C20.8804 23.3333 21.3256 23.5177 21.6537 23.8459C21.9819 24.1741 22.1663 24.6192 22.1663 25.0833C22.1663 25.5474 21.9819 25.9926 21.6537 26.3207C21.3256 26.6489 20.8804 26.8333 20.4163 26.8333Z" fill="#1D1D1D"/>
</svg>
