<svg width="48" height="48" viewBox="0 0 48 48" fill="none" xmlns="http://www.w3.org/2000/svg">
<rect width="48" height="48" rx="24" fill="#FF5A2C"/>
<path d="M17.3334 19.3447L14.6309 16.643L15.81 15.4639L18.5117 18.1664H31.2134C31.3433 18.1664 31.4713 18.1967 31.5874 18.255C31.7035 18.3133 31.8043 18.3979 31.8819 18.5021C31.9594 18.6063 32.0116 18.7272 32.0341 18.8551C32.0566 18.983 32.049 19.1144 32.0117 19.2389L30.0117 25.9055C29.9602 26.0773 29.8548 26.2278 29.711 26.3349C29.5671 26.4419 29.3926 26.4997 29.2134 26.4997H19V28.1664H28.1667V29.833H18.1667C17.9457 29.833 17.7337 29.7452 17.5774 29.589C17.4212 29.4327 17.3334 29.2207 17.3334 28.9997V19.3447ZM19 19.833V24.833H28.5934L30.0934 19.833H19ZM18.5834 33.1664C18.2518 33.1664 17.9339 33.0347 17.6995 32.8002C17.4651 32.5658 17.3334 32.2479 17.3334 31.9164C17.3334 31.5848 17.4651 31.2669 17.6995 31.0325C17.9339 30.7981 18.2518 30.6664 18.5834 30.6664C18.9149 30.6664 19.2328 30.7981 19.4672 31.0325C19.7017 31.2669 19.8334 31.5848 19.8334 31.9164C19.8334 32.2479 19.7017 32.5658 19.4672 32.8002C19.2328 33.0347 18.9149 33.1664 18.5834 33.1664ZM28.5834 33.1664C28.2518 33.1664 27.9339 33.0347 27.6995 32.8002C27.4651 32.5658 27.3334 32.2479 27.3334 31.9164C27.3334 31.5848 27.4651 31.2669 27.6995 31.0325C27.9339 30.7981 28.2518 30.6664 28.5834 30.6664C28.9149 30.6664 29.2328 30.7981 29.4672 31.0325C29.7017 31.2669 29.8334 31.5848 29.8334 31.9164C29.8334 32.2479 29.7017 32.5658 29.4672 32.8002C29.2328 33.0347 28.9149 33.1664 28.5834 33.1664Z" fill="white"/>
</svg>
