<svg width="40" height="40" viewBox="0 0 40 40" fill="none" xmlns="http://www.w3.org/2000/svg">
<path fill-rule="evenodd" clip-rule="evenodd" d="M27.1893 7.55803C27.1088 7.49871 27.0116 7.4668 26.9117 7.4668H13.04C12.9401 7.4668 12.8427 7.49871 12.7623 7.55803L11.4956 8.49137C10.1837 9.45811 9.40918 10.9908 9.40918 12.6205C9.40918 17.1028 9.40918 26.9341 9.40918 32.7928C9.40918 35.6255 11.7055 37.9218 14.5382 37.9218C17.803 37.9218 22.1485 37.9218 25.4135 37.9218C28.2462 37.9218 30.5425 35.6255 30.5425 32.7928C30.5425 26.9341 30.5425 17.1028 30.5425 12.6205C30.5425 10.9908 29.768 9.45811 28.4561 8.49137L27.1893 7.55803Z" fill="#EAEFFE"/>
<path fill-rule="evenodd" clip-rule="evenodd" d="M28.0448 14.8392C28.0448 14.7117 27.9926 14.5896 27.9006 14.5013C27.8085 14.413 27.6843 14.3661 27.5568 14.3715C25.1183 14.4749 22.2953 15.1004 19.8806 16.9511C19.7571 17.0457 19.6888 17.1953 19.6981 17.3505C19.7072 17.5057 19.7931 17.6463 19.9269 17.7255C22.493 19.2449 25.1747 19.4756 27.6518 19.0722C27.8783 19.0353 28.0448 18.8395 28.0448 18.61V14.8392Z" fill="#39A4F9"/>
<path fill-rule="evenodd" clip-rule="evenodd" d="M14.0015 14.8952C14.0002 14.9088 13.9996 14.9226 13.9996 14.9367C13.9996 14.9641 13.9774 14.9864 13.95 14.9864C13.9495 14.9864 13.9492 14.9864 13.9488 14.9864C13.3749 14.9894 12.825 15.0351 12.3049 15.1109C12.0748 15.1445 11.9043 15.3418 11.9043 15.5741V31.8354C11.9043 32.094 12.1139 32.3036 12.3725 32.3036H27.5756C27.8342 32.3036 28.0438 32.094 28.0438 31.8354V18.6099C28.0438 18.4727 27.9835 18.3422 27.8788 18.2532C27.7743 18.1644 27.6358 18.1257 27.5004 18.1479C25.1663 18.5281 22.6328 18.3045 20.2207 16.8095C19.6486 16.4549 19.0812 16.1617 18.5269 15.9103C18.523 15.9085 18.519 15.9069 18.5149 15.9051C18.5056 15.9012 18.4983 15.8938 18.4946 15.8844C18.4908 15.8751 18.491 15.8646 18.495 15.8555C18.4956 15.8541 18.4961 15.8529 18.4967 15.8516C18.6164 15.5704 18.6827 15.2612 18.6827 14.9365C18.6827 13.6445 17.6337 12.5957 16.3419 12.5957C15.0637 12.5957 14.0235 13.6222 14.0015 14.8952Z" fill="#1B8CE5"/>
<path d="M22.471 13.5767C23.419 13.5767 24.1875 12.8081 24.1875 11.8601C24.1875 10.9121 23.419 10.1436 22.471 10.1436C21.5229 10.1436 20.7544 10.9121 20.7544 11.8601C20.7544 12.8081 21.5229 13.5767 22.471 13.5767Z" fill="#1B8CE5"/>
<path fill-rule="evenodd" clip-rule="evenodd" d="M30.5425 31.3672H9.40918V32.7925C9.40918 35.6252 11.7055 37.9215 14.5382 37.9215H25.4135C28.2462 37.9215 30.5425 35.6252 30.5425 32.7925V31.3672Z" fill="#5B5B81"/>
<path fill-rule="evenodd" clip-rule="evenodd" d="M29.3766 4.43851C29.3766 3.79926 29.1226 3.18622 28.6707 2.73424C28.2187 2.28225 27.6056 2.02832 26.9664 2.02832C23.5306 2.02832 16.4197 2.02832 12.9839 2.02832C12.3447 2.02832 11.7316 2.28225 11.2796 2.73424C10.8277 3.18622 10.5737 3.79926 10.5737 4.43851C10.5737 4.94338 10.5737 5.4872 10.5737 5.99207C10.5737 6.63132 10.8277 7.24435 11.2796 7.69633C11.7316 8.14832 12.3447 8.40225 12.9839 8.40225C16.4197 8.40225 23.5306 8.40225 26.9664 8.40225C27.6056 8.40225 28.2187 8.14832 28.6707 7.69633C29.1226 7.24435 29.3766 6.63132 29.3766 5.99207V4.43851Z" fill="#5B5B81"/>
</svg>
