<svg width="239" height="64" viewBox="0 0 239 64" fill="none" xmlns="http://www.w3.org/2000/svg">
<rect width="239" height="64" rx="16" fill="url(#paint0_linear_762_1297)"/>
<path d="M69.74 25.8L64.84 39H62.34L57.44 25.8H59.72L62.8 34.58L63.6 37.2L64.4 34.6L67.48 25.8H69.74ZM72.7236 27.32C72.2569 27.32 71.8969 27.2067 71.6436 26.98C71.4036 26.74 71.2836 26.4067 71.2836 25.98C71.2836 25.5533 71.4036 25.2267 71.6436 25C71.8969 24.7733 72.2569 24.66 72.7236 24.66C73.1769 24.66 73.5236 24.7733 73.7636 25C74.0169 25.2267 74.1436 25.5533 74.1436 25.98C74.1436 26.4067 74.0169 26.74 73.7636 26.98C73.5236 27.2067 73.1769 27.32 72.7236 27.32ZM73.7836 29V39H71.6436V29H73.7836ZM81.3319 39.2C80.3319 39.2 79.4519 38.9933 78.6919 38.58C77.9319 38.1667 77.3385 37.5733 76.9119 36.8C76.4985 36.0133 76.2919 35.08 76.2919 34C76.2919 32.92 76.4985 31.9933 76.9119 31.22C77.3385 30.4333 77.9252 29.8333 78.6719 29.42C79.4185 29.0067 80.2652 28.8 81.2119 28.8C82.1852 28.8 83.0119 29 83.6919 29.4C84.3719 29.8 84.8919 30.3467 85.2519 31.04C85.6119 31.7333 85.7919 32.52 85.7919 33.4C85.7919 33.64 85.7852 33.8667 85.7719 34.08C85.7585 34.2933 85.7385 34.48 85.7119 34.64H77.6719V33H84.7719L83.7119 33.32C83.7119 32.4133 83.4852 31.72 83.0319 31.24C82.5785 30.7467 81.9585 30.5 81.1719 30.5C80.5985 30.5 80.0985 30.6333 79.6719 30.9C79.2452 31.1667 78.9185 31.5667 78.6919 32.1C78.4652 32.62 78.3519 33.26 78.3519 34.02C78.3519 34.7667 78.4719 35.4 78.7119 35.92C78.9519 36.44 79.2919 36.8333 79.7319 37.1C80.1719 37.3667 80.6919 37.5 81.2919 37.5C81.9585 37.5 82.4985 37.3733 82.9119 37.12C83.3252 36.8667 83.6519 36.5133 83.8919 36.06L85.5919 36.86C85.3519 37.34 85.0252 37.76 84.6119 38.12C84.2119 38.4667 83.7319 38.7333 83.1719 38.92C82.6119 39.1067 81.9985 39.2 81.3319 39.2ZM100.76 29H103.08L99.7205 39H97.3805L94.8605 31.58L92.4805 39H90.1405L86.8005 29H89.1005L91.3805 36.9L93.8605 29H96.0005L98.4805 36.9L100.76 29ZM122.045 35.5C121.778 36.3 121.378 36.98 120.845 37.54C120.311 38.0867 119.685 38.5 118.965 38.78C118.245 39.06 117.451 39.2 116.585 39.2C115.318 39.2 114.218 38.9267 113.285 38.38C112.351 37.8333 111.631 37.0533 111.125 36.04C110.618 35.0267 110.365 33.8133 110.365 32.4C110.365 30.9867 110.618 29.7733 111.125 28.76C111.631 27.7467 112.351 26.9667 113.285 26.42C114.218 25.8733 115.311 25.6 116.565 25.6C117.431 25.6 118.211 25.72 118.905 25.96C119.611 26.2 120.211 26.56 120.705 27.04C121.198 27.52 121.578 28.12 121.845 28.84L119.825 29.74C119.558 28.9533 119.171 28.38 118.665 28.02C118.158 27.6467 117.498 27.46 116.685 27.46C115.871 27.46 115.158 27.6533 114.545 28.04C113.931 28.4267 113.451 28.9867 113.105 29.72C112.771 30.4533 112.605 31.3467 112.605 32.4C112.605 33.44 112.765 34.3333 113.085 35.08C113.405 35.8133 113.865 36.3733 114.465 36.76C115.065 37.1467 115.785 37.34 116.625 37.34C117.438 37.34 118.138 37.1333 118.725 36.72C119.325 36.2933 119.751 35.66 120.005 34.82L122.045 35.5ZM130.056 32.58C130.056 31.9133 129.87 31.4 129.496 31.04C129.136 30.6667 128.636 30.48 127.996 30.48C127.396 30.48 126.883 30.62 126.456 30.9C126.03 31.18 125.716 31.6333 125.516 32.26L123.716 31.5C123.97 30.6867 124.463 30.0333 125.196 29.54C125.943 29.0467 126.903 28.8 128.076 28.8C128.876 28.8 129.583 28.9333 130.196 29.2C130.81 29.4533 131.29 29.84 131.636 30.36C131.996 30.88 132.176 31.5467 132.176 32.36V36.82C132.176 37.3133 132.423 37.56 132.916 37.56C133.156 37.56 133.39 37.5267 133.616 37.46L133.496 38.94C133.19 39.0867 132.803 39.16 132.336 39.16C131.91 39.16 131.523 39.0867 131.176 38.94C130.843 38.78 130.576 38.5467 130.376 38.24C130.19 37.92 130.096 37.5267 130.096 37.06V36.92L130.536 36.9C130.416 37.42 130.17 37.8533 129.796 38.2C129.423 38.5333 128.99 38.7867 128.496 38.96C128.003 39.12 127.503 39.2 126.996 39.2C126.37 39.2 125.803 39.1 125.296 38.9C124.803 38.7 124.41 38.4 124.116 38C123.836 37.5867 123.696 37.08 123.696 36.48C123.696 35.7333 123.936 35.12 124.416 34.64C124.91 34.16 125.603 33.8333 126.496 33.66L130.376 32.9L130.356 34.4L127.536 34.98C126.976 35.0867 126.556 35.24 126.276 35.44C125.996 35.64 125.856 35.9333 125.856 36.32C125.856 36.6933 125.996 36.9933 126.276 37.22C126.57 37.4333 126.956 37.54 127.436 37.54C127.77 37.54 128.09 37.5 128.396 37.42C128.716 37.34 129.003 37.2133 129.256 37.04C129.51 36.8533 129.703 36.62 129.836 36.34C129.983 36.0467 130.056 35.7 130.056 35.3V32.58ZM138.012 26.06V36C138.012 36.4933 138.139 36.8533 138.392 37.08C138.659 37.3067 139.012 37.42 139.452 37.42C139.812 37.42 140.125 37.3667 140.392 37.26C140.659 37.14 140.905 36.98 141.132 36.78L141.612 38.34C141.305 38.6067 140.925 38.82 140.472 38.98C140.032 39.1267 139.539 39.2 138.992 39.2C138.419 39.2 137.892 39.1067 137.412 38.92C136.932 38.7333 136.559 38.4333 136.292 38.02C136.025 37.5933 135.885 37.04 135.872 36.36V26.66L138.012 26.06ZM141.452 29V30.68H133.952V29H141.452ZM149.207 32.58C149.207 31.9133 149.021 31.4 148.647 31.04C148.287 30.6667 147.787 30.48 147.147 30.48C146.547 30.48 146.034 30.62 145.607 30.9C145.181 31.18 144.867 31.6333 144.667 32.26L142.867 31.5C143.121 30.6867 143.614 30.0333 144.347 29.54C145.094 29.0467 146.054 28.8 147.227 28.8C148.027 28.8 148.734 28.9333 149.347 29.2C149.961 29.4533 150.441 29.84 150.787 30.36C151.147 30.88 151.327 31.5467 151.327 32.36V36.82C151.327 37.3133 151.574 37.56 152.067 37.56C152.307 37.56 152.541 37.5267 152.767 37.46L152.647 38.94C152.341 39.0867 151.954 39.16 151.487 39.16C151.061 39.16 150.674 39.0867 150.327 38.94C149.994 38.78 149.727 38.5467 149.527 38.24C149.341 37.92 149.247 37.5267 149.247 37.06V36.92L149.687 36.9C149.567 37.42 149.321 37.8533 148.947 38.2C148.574 38.5333 148.141 38.7867 147.647 38.96C147.154 39.12 146.654 39.2 146.147 39.2C145.521 39.2 144.954 39.1 144.447 38.9C143.954 38.7 143.561 38.4 143.267 38C142.987 37.5867 142.847 37.08 142.847 36.48C142.847 35.7333 143.087 35.12 143.567 34.64C144.061 34.16 144.754 33.8333 145.647 33.66L149.527 32.9L149.507 34.4L146.687 34.98C146.127 35.0867 145.707 35.24 145.427 35.44C145.147 35.64 145.007 35.9333 145.007 36.32C145.007 36.6933 145.147 36.9933 145.427 37.22C145.721 37.4333 146.107 37.54 146.587 37.54C146.921 37.54 147.241 37.5 147.547 37.42C147.867 37.34 148.154 37.2133 148.407 37.04C148.661 36.8533 148.854 36.62 148.987 36.34C149.134 36.0467 149.207 35.7 149.207 35.3V32.58ZM156.713 24.5V36.2C156.713 36.6933 156.8 37.0333 156.973 37.22C157.147 37.4067 157.433 37.5 157.833 37.5C158.073 37.5 158.273 37.4867 158.433 37.46C158.607 37.42 158.82 37.3533 159.073 37.26L158.833 38.86C158.607 38.9667 158.347 39.0467 158.053 39.1C157.76 39.1667 157.467 39.2 157.173 39.2C156.28 39.2 155.62 38.9733 155.193 38.52C154.78 38.0533 154.573 37.34 154.573 36.38V24.5H156.713ZM165.004 28.8C165.977 28.8 166.837 29.0067 167.584 29.42C168.331 29.8333 168.911 30.4333 169.324 31.22C169.751 31.9933 169.964 32.92 169.964 34C169.964 35.08 169.751 36.0133 169.324 36.8C168.911 37.5733 168.331 38.1667 167.584 38.58C166.837 38.9933 165.977 39.2 165.004 39.2C164.031 39.2 163.171 38.9933 162.424 38.58C161.677 38.1667 161.091 37.5733 160.664 36.8C160.237 36.0133 160.024 35.08 160.024 34C160.024 32.92 160.237 31.9933 160.664 31.22C161.091 30.4333 161.677 29.8333 162.424 29.42C163.171 29.0067 164.031 28.8 165.004 28.8ZM165.004 30.48C164.404 30.48 163.891 30.62 163.464 30.9C163.051 31.1667 162.731 31.56 162.504 32.08C162.277 32.6 162.164 33.24 162.164 34C162.164 34.7467 162.277 35.3867 162.504 35.92C162.731 36.44 163.051 36.84 163.464 37.12C163.891 37.3867 164.404 37.52 165.004 37.52C165.604 37.52 166.111 37.3867 166.524 37.12C166.937 36.84 167.257 36.44 167.484 35.92C167.711 35.3867 167.824 34.7467 167.824 34C167.824 33.24 167.711 32.6 167.484 32.08C167.257 31.56 166.937 31.1667 166.524 30.9C166.111 30.62 165.604 30.48 165.004 30.48ZM181.217 26.9L181.557 28.58C181.517 28.58 181.477 28.58 181.437 28.58C181.397 28.5667 181.357 28.56 181.317 28.56C180.677 28.56 180.19 28.7 179.857 28.98C179.524 29.2467 179.357 29.64 179.357 30.16L178.317 29.68C178.317 29.1467 178.43 28.6733 178.657 28.26C178.884 27.8333 179.204 27.5 179.617 27.26C180.044 27.02 180.524 26.9 181.057 26.9C181.084 26.9 181.11 26.9 181.137 26.9C181.164 26.9 181.19 26.9 181.217 26.9ZM178.057 37.44C179.07 37.44 179.857 37.6667 180.417 38.12C180.977 38.56 181.257 39.1733 181.257 39.96C181.257 40.6533 181.037 41.2467 180.597 41.74C180.157 42.2467 179.557 42.6333 178.797 42.9C178.05 43.1667 177.19 43.3 176.217 43.3C174.577 43.3 173.364 43.0467 172.577 42.54C171.79 42.0333 171.397 41.4 171.397 40.64C171.397 40.1067 171.584 39.64 171.957 39.24C172.344 38.84 172.99 38.6133 173.897 38.56L173.777 38.88C173.217 38.76 172.764 38.5467 172.417 38.24C172.084 37.92 171.917 37.4733 171.917 36.9C171.917 36.3267 172.137 35.84 172.577 35.44C173.017 35.04 173.637 34.8067 174.437 34.74L175.557 35.28H175.317C174.704 35.3333 174.27 35.4733 174.017 35.7C173.764 35.9267 173.637 36.18 173.637 36.46C173.637 36.7933 173.757 37.04 173.997 37.2C174.25 37.36 174.604 37.44 175.057 37.44H178.057ZM176.217 41.7C176.95 41.7 177.55 41.6267 178.017 41.48C178.497 41.3467 178.85 41.1667 179.077 40.94C179.317 40.7267 179.437 40.4867 179.437 40.22C179.437 39.9133 179.31 39.6667 179.057 39.48C178.817 39.2933 178.377 39.2 177.737 39.2H174.517C174.144 39.2 173.83 39.2933 173.577 39.48C173.324 39.68 173.197 39.9467 173.197 40.28C173.197 40.72 173.464 41.0667 173.997 41.32C174.53 41.5733 175.27 41.7 176.217 41.7ZM176.137 28.8C177.017 28.8 177.777 28.94 178.417 29.22C179.07 29.5 179.57 29.8933 179.917 30.4C180.277 30.9067 180.457 31.5 180.457 32.18C180.457 32.86 180.277 33.4533 179.917 33.96C179.57 34.4667 179.07 34.86 178.417 35.14C177.777 35.42 177.017 35.56 176.137 35.56C174.75 35.56 173.684 35.2533 172.937 34.64C172.204 34.0133 171.837 33.1933 171.837 32.18C171.837 31.5 172.017 30.9067 172.377 30.4C172.737 29.8933 173.237 29.5 173.877 29.22C174.53 28.94 175.284 28.8 176.137 28.8ZM176.137 30.3C175.524 30.3 175.01 30.4733 174.597 30.82C174.197 31.1533 173.997 31.6067 173.997 32.18C173.997 32.7533 174.197 33.2133 174.597 33.56C175.01 33.9067 175.524 34.08 176.137 34.08C176.764 34.08 177.277 33.9067 177.677 33.56C178.09 33.2133 178.297 32.7533 178.297 32.18C178.297 31.6067 178.09 31.1533 177.677 30.82C177.277 30.4733 176.764 30.3 176.137 30.3Z" fill="white"/>
<defs>
<linearGradient id="paint0_linear_762_1297" x1="0" y1="0" x2="239.931" y2="60.2964" gradientUnits="userSpaceOnUse">
<stop stop-color="#FFAD00"/>
<stop offset="1" stop-color="#FE1300"/>
</linearGradient>
</defs>
</svg>
