<svg width="239" height="64" viewBox="0 0 239 64" fill="none" xmlns="http://www.w3.org/2000/svg">
<rect x="0.5" y="0.5" width="238" height="63" rx="15.5" fill="white"/>
<path d="M79.3 35.62C79.02 36.3667 78.62 37.0133 78.1 37.56C77.58 38.0933 76.9667 38.5 76.26 38.78C75.5667 39.06 74.8067 39.2 73.98 39.2C72.7267 39.2 71.64 38.9267 70.72 38.38C69.8133 37.82 69.1067 37.0333 68.6 36.02C68.1067 35.0067 67.86 33.8 67.86 32.4C67.86 31 68.1067 29.7933 68.6 28.78C69.1067 27.7667 69.8133 26.9867 70.72 26.44C71.64 25.88 72.7133 25.6 73.94 25.6C74.7933 25.6 75.5533 25.72 76.22 25.96C76.8867 26.1867 77.4533 26.5333 77.92 27C78.4 27.4533 78.78 28.0133 79.06 28.68L77.48 29.42C77.1867 28.66 76.76 28.0867 76.2 27.7C75.6533 27.3 74.94 27.1 74.06 27.1C73.1667 27.1 72.38 27.3133 71.7 27.74C71.02 28.1533 70.4867 28.7533 70.1 29.54C69.7267 30.3267 69.54 31.28 69.54 32.4C69.54 33.5067 69.72 34.46 70.08 35.26C70.44 36.0467 70.9533 36.6533 71.62 37.08C72.2867 37.4933 73.0733 37.7 73.98 37.7C74.86 37.7 75.6267 37.48 76.28 37.04C76.9333 36.5867 77.4067 35.9133 77.7 35.02L79.3 35.62ZM86.0109 28.8C86.9576 28.8 87.7909 29.0067 88.5109 29.42C89.2443 29.8333 89.8176 30.4333 90.2309 31.22C90.6443 31.9933 90.8509 32.92 90.8509 34C90.8509 35.08 90.6443 36.0133 90.2309 36.8C89.8176 37.5733 89.2443 38.1667 88.5109 38.58C87.7909 38.9933 86.9576 39.2 86.0109 39.2C85.0776 39.2 84.2443 38.9933 83.5109 38.58C82.7776 38.1667 82.2043 37.5733 81.7909 36.8C81.3776 36.0133 81.1709 35.08 81.1709 34C81.1709 32.92 81.3776 31.9933 81.7909 31.22C82.2043 30.4333 82.7776 29.8333 83.5109 29.42C84.2443 29.0067 85.0776 28.8 86.0109 28.8ZM86.0109 30.18C85.3309 30.18 84.7509 30.3333 84.2709 30.64C83.7909 30.9467 83.4176 31.3867 83.1509 31.96C82.8976 32.52 82.7709 33.2 82.7709 34C82.7709 34.7867 82.8976 35.4667 83.1509 36.04C83.4176 36.6133 83.7909 37.0533 84.2709 37.36C84.7509 37.6667 85.3309 37.82 86.0109 37.82C86.6909 37.82 87.2709 37.6667 87.7509 37.36C88.2309 37.0533 88.5976 36.6133 88.8509 36.04C89.1176 35.4667 89.2509 34.7867 89.2509 34C89.2509 33.2 89.1176 32.52 88.8509 31.96C88.5976 31.3867 88.2309 30.9467 87.7509 30.64C87.2709 30.3333 86.6909 30.18 86.0109 30.18ZM93.6631 39V29H95.0631L95.2031 31.24L94.9431 31.02C95.1565 30.4867 95.4431 30.06 95.8031 29.74C96.1631 29.4067 96.5765 29.1667 97.0431 29.02C97.5231 28.8733 98.0165 28.8 98.5231 28.8C99.2431 28.8 99.8965 28.94 100.483 29.22C101.07 29.4867 101.536 29.9 101.883 30.46C102.243 31.02 102.423 31.7333 102.423 32.6V39H100.823V33.16C100.823 32.0533 100.583 31.2867 100.103 30.86C99.6365 30.42 99.0565 30.2 98.3631 30.2C97.8831 30.2 97.4031 30.3133 96.9231 30.54C96.4431 30.7667 96.0431 31.1333 95.7231 31.64C95.4165 32.1467 95.2631 32.8267 95.2631 33.68V39H93.6631ZM108.069 26.16V36.24C108.069 36.7333 108.209 37.1 108.489 37.34C108.769 37.58 109.129 37.7 109.569 37.7C109.956 37.7 110.289 37.6333 110.569 37.5C110.849 37.3667 111.103 37.1867 111.329 36.96L111.889 38.3C111.583 38.58 111.216 38.8 110.789 38.96C110.376 39.12 109.896 39.2 109.349 39.2C108.843 39.2 108.369 39.1133 107.929 38.94C107.489 38.7533 107.136 38.4667 106.869 38.08C106.616 37.68 106.483 37.16 106.469 36.52V26.6L108.069 26.16ZM111.709 29V30.38H104.469V29H111.709ZM119.728 32.54C119.728 31.7933 119.528 31.22 119.128 30.82C118.728 30.4067 118.161 30.2 117.428 30.2C116.735 30.2 116.148 30.3533 115.668 30.66C115.188 30.9533 114.835 31.4333 114.608 32.1L113.308 31.3C113.575 30.5533 114.068 29.9533 114.788 29.5C115.508 29.0333 116.401 28.8 117.468 28.8C118.188 28.8 118.841 28.9267 119.428 29.18C120.015 29.42 120.475 29.7933 120.808 30.3C121.155 30.7933 121.328 31.4333 121.328 32.22V37.06C121.328 37.54 121.581 37.78 122.088 37.78C122.341 37.78 122.588 37.7467 122.828 37.68L122.748 38.94C122.481 39.0733 122.135 39.14 121.708 39.14C121.321 39.14 120.975 39.0667 120.668 38.92C120.361 38.7733 120.121 38.5533 119.948 38.26C119.775 37.9533 119.688 37.5733 119.688 37.12V36.92L120.088 36.98C119.928 37.5 119.655 37.9267 119.268 38.26C118.881 38.58 118.448 38.82 117.968 38.98C117.488 39.1267 117.015 39.2 116.548 39.2C115.961 39.2 115.415 39.1 114.908 38.9C114.401 38.7 113.995 38.4 113.688 38C113.395 37.5867 113.248 37.08 113.248 36.48C113.248 35.7333 113.495 35.12 113.988 34.64C114.495 34.1467 115.195 33.8133 116.088 33.64L120.048 32.86V34.18L116.828 34.84C116.175 34.9733 115.688 35.16 115.368 35.4C115.048 35.64 114.888 35.9733 114.888 36.4C114.888 36.8133 115.048 37.1533 115.368 37.42C115.701 37.6733 116.168 37.8 116.768 37.8C117.155 37.8 117.521 37.7533 117.868 37.66C118.228 37.5533 118.548 37.4 118.828 37.2C119.108 36.9867 119.328 36.7267 119.488 36.42C119.648 36.1 119.728 35.7267 119.728 35.3V32.54ZM129.156 28.8C129.85 28.8 130.456 28.9067 130.976 29.12C131.51 29.3333 131.97 29.64 132.356 30.04C132.743 30.44 133.056 30.9133 133.296 31.46L131.776 32.18C131.563 31.54 131.236 31.0533 130.796 30.72C130.37 30.3733 129.81 30.2 129.116 30.2C128.45 30.2 127.876 30.3533 127.396 30.66C126.916 30.9533 126.55 31.3867 126.296 31.96C126.043 32.52 125.916 33.2 125.916 34C125.916 34.7867 126.043 35.4667 126.296 36.04C126.55 36.6133 126.916 37.0533 127.396 37.36C127.876 37.6533 128.45 37.8 129.116 37.8C129.636 37.8 130.083 37.72 130.456 37.56C130.843 37.4 131.156 37.1667 131.396 36.86C131.65 36.5533 131.823 36.18 131.916 35.74L133.396 36.26C133.17 36.8733 132.856 37.4 132.456 37.84C132.07 38.28 131.596 38.62 131.036 38.86C130.49 39.0867 129.863 39.2 129.156 39.2C128.223 39.2 127.39 38.9933 126.656 38.58C125.923 38.1667 125.35 37.5733 124.936 36.8C124.523 36.0133 124.316 35.08 124.316 34C124.316 32.92 124.523 31.9933 124.936 31.22C125.35 30.4333 125.923 29.8333 126.656 29.42C127.39 29.0067 128.223 28.8 129.156 28.8ZM138.368 26.16V36.24C138.368 36.7333 138.508 37.1 138.788 37.34C139.068 37.58 139.428 37.7 139.868 37.7C140.254 37.7 140.588 37.6333 140.868 37.5C141.148 37.3667 141.401 37.1867 141.628 36.96L142.188 38.3C141.881 38.58 141.514 38.8 141.088 38.96C140.674 39.12 140.194 39.2 139.648 39.2C139.141 39.2 138.668 39.1133 138.228 38.94C137.788 38.7533 137.434 38.4667 137.168 38.08C136.914 37.68 136.781 37.16 136.768 36.52V26.6L138.368 26.16ZM142.008 29V30.38H134.768V29H142.008ZM154.423 39.2C153.783 39.2 153.176 39.08 152.603 38.84C152.043 38.6 151.583 38.2133 151.223 37.68C150.876 37.1333 150.703 36.4267 150.703 35.56V29H152.303V35.14C152.303 36.1533 152.523 36.8533 152.963 37.24C153.403 37.6133 154.023 37.8 154.823 37.8C155.196 37.8 155.563 37.74 155.923 37.62C156.283 37.4867 156.603 37.2867 156.883 37.02C157.176 36.74 157.403 36.3867 157.563 35.96C157.736 35.5333 157.823 35.0267 157.823 34.44V29H159.423V39H158.023L157.923 37.48C157.576 38.08 157.103 38.52 156.503 38.8C155.916 39.0667 155.223 39.2 154.423 39.2ZM166.547 39.2C165.573 39.2 164.673 38.9933 163.847 38.58C163.033 38.1667 162.407 37.58 161.967 36.82L163.327 35.84C163.62 36.4533 164.047 36.9333 164.607 37.28C165.18 37.6267 165.867 37.8 166.667 37.8C167.373 37.8 167.927 37.6667 168.327 37.4C168.727 37.12 168.927 36.76 168.927 36.32C168.927 36.04 168.833 35.7867 168.647 35.56C168.473 35.32 168.133 35.1467 167.627 35.04L165.227 34.54C164.253 34.34 163.553 34.0067 163.127 33.54C162.713 33.0733 162.507 32.4933 162.507 31.8C162.507 31.2533 162.66 30.7533 162.967 30.3C163.287 29.8467 163.733 29.4867 164.307 29.22C164.893 28.94 165.58 28.8 166.367 28.8C167.353 28.8 168.187 28.9933 168.867 29.38C169.547 29.7667 170.053 30.3133 170.387 31.02L169.047 31.9C168.82 31.3133 168.453 30.8867 167.947 30.62C167.44 30.34 166.913 30.2 166.367 30.2C165.887 30.2 165.473 30.2667 165.127 30.4C164.793 30.5333 164.533 30.72 164.347 30.96C164.173 31.1867 164.087 31.4467 164.087 31.74C164.087 32.0333 164.187 32.3067 164.387 32.56C164.587 32.8 164.96 32.9733 165.507 33.08L168.007 33.6C168.94 33.7867 169.593 34.0933 169.967 34.52C170.34 34.9467 170.527 35.4667 170.527 36.08C170.527 36.7067 170.36 37.26 170.027 37.74C169.693 38.2067 169.227 38.5667 168.627 38.82C168.027 39.0733 167.333 39.2 166.547 39.2Z" fill="#1D1D1D"/>
<rect x="0.5" y="0.5" width="238" height="63" rx="15.5" stroke="#BFBFBF"/>
</svg>
