<svg width="60" height="47" viewBox="0 0 60 47" fill="none" xmlns="http://www.w3.org/2000/svg">
<g clip-path="url(#clip0_762_5698)">
<path d="M22.6663 24.483L18.8828 20.7006L20.5336 19.0498L24.316 22.8333H42.0983C42.2802 22.8333 42.4595 22.8758 42.622 22.9574C42.7845 23.039 42.9257 23.1575 43.0343 23.3033C43.1428 23.4492 43.2158 23.6185 43.2474 23.7975C43.2789 23.9766 43.2682 24.1606 43.216 24.3348L40.416 33.6681C40.3439 33.9086 40.1963 34.1194 39.9949 34.2692C39.7936 34.4191 39.5493 34.5 39.2983 34.5H24.9996V36.8333H37.833V39.1666H23.833C23.5236 39.1666 23.2268 39.0437 23.008 38.8249C22.7892 38.6061 22.6663 38.3094 22.6663 38V24.483ZM24.9996 25.1666V32.1666H38.4303L40.5303 25.1666H24.9996ZM24.4163 43.8333C23.9522 43.8333 23.5071 43.6489 23.1789 43.3207C22.8507 42.9926 22.6663 42.5474 22.6663 42.0833C22.6663 41.6192 22.8507 41.1741 23.1789 40.8459C23.5071 40.5177 23.9522 40.3333 24.4163 40.3333C24.8804 40.3333 25.3256 40.5177 25.6537 40.8459C25.9819 41.1741 26.1663 41.6192 26.1663 42.0833C26.1663 42.5474 25.9819 42.9926 25.6537 43.3207C25.3256 43.6489 24.8804 43.8333 24.4163 43.8333ZM38.4163 43.8333C37.9522 43.8333 37.5071 43.6489 37.1789 43.3207C36.8507 42.9926 36.6663 42.5474 36.6663 42.0833C36.6663 41.6192 36.8507 41.1741 37.1789 40.8459C37.5071 40.5177 37.9522 40.3333 38.4163 40.3333C38.8804 40.3333 39.3256 40.5177 39.6537 40.8459C39.9819 41.1741 40.1663 41.6192 40.1663 42.0833C40.1663 42.5474 39.9819 42.9926 39.6537 43.3207C39.3256 43.6489 38.8804 43.8333 38.4163 43.8333Z" fill="#1D1D1D"/>
<rect x="40" y="4" width="20" height="20" rx="10" fill="url(#paint0_linear_762_5698)"/>
<path d="M49.508 19.14C48.248 19.14 47.2913 18.7387 46.638 17.936C45.994 17.1333 45.672 15.948 45.672 14.38C45.672 12.812 45.994 11.6267 46.638 10.824C47.2913 10.0213 48.248 9.62 49.508 9.62C50.768 9.62 51.72 10.0213 52.364 10.824C53.0173 11.6267 53.344 12.812 53.344 14.38C53.344 15.948 53.0173 17.1333 52.364 17.936C51.72 18.7387 50.768 19.14 49.508 19.14ZM49.508 17.264C49.8533 17.264 50.1333 17.1707 50.348 16.984C50.5627 16.788 50.7167 16.48 50.81 16.06C50.9127 15.6307 50.964 15.0707 50.964 14.38C50.964 13.6893 50.9127 13.134 50.81 12.714C50.7167 12.2847 50.5627 11.9767 50.348 11.79C50.1333 11.594 49.8533 11.496 49.508 11.496C49.172 11.496 48.892 11.594 48.668 11.79C48.4533 11.9767 48.2947 12.2847 48.192 12.714C48.0987 13.134 48.052 13.6893 48.052 14.38C48.052 15.0707 48.0987 15.6307 48.192 16.06C48.2947 16.48 48.4533 16.788 48.668 16.984C48.892 17.1707 49.172 17.264 49.508 17.264Z" fill="white"/>
</g>
<defs>
<linearGradient id="paint0_linear_762_5698" x1="40" y1="4" x2="61.2497" y2="5.43001" gradientUnits="userSpaceOnUse">
<stop stop-color="#FFAD00"/>
<stop offset="1" stop-color="#FE1300"/>
</linearGradient>
<clipPath id="clip0_762_5698">
<rect width="60" height="47" rx="8" fill="white"/>
</clipPath>
</defs>
</svg>
