<svg width="40" height="40" viewBox="0 0 40 40" fill="none" xmlns="http://www.w3.org/2000/svg">
<path fill-rule="evenodd" clip-rule="evenodd" d="M19.0411 11.1343L19.049 11.1375H14.2182C14.0444 11.1375 13.885 11.0413 13.8041 10.8877C13.7231 10.734 13.7337 10.5481 13.8318 10.4049C13.8466 10.3832 13.8618 10.3616 13.8754 10.3421C14.4642 9.49747 14.7798 8.49268 14.7798 7.46301C14.7798 7.46092 14.7798 7.45882 14.7798 7.45672C14.7846 7.09462 14.7851 6.76249 14.7851 6.76249V6.7541C14.7851 4.43695 16.6636 2.55859 18.9806 2.55859C18.9807 2.55859 18.9807 2.55859 18.9809 2.55859C20.0368 2.55859 21.0016 2.94871 21.7389 3.5926C21.8402 3.68099 21.8985 3.80863 21.8992 3.94301C21.8998 4.07725 21.8428 4.20549 21.7425 4.29492C21.0931 4.8735 20.684 5.71635 20.684 6.65477L20.6736 6.66511C20.6718 8.16504 20.2565 9.63515 19.4741 10.9138C19.3944 11.0441 19.2564 11.1267 19.1052 11.1366L19.049 11.1375L19.0487 11.1367L18.7939 11.0319L18.6829 10.9156L18.6519 10.8408L18.6066 10.6603L18.6465 10.5243L18.7394 10.3184L18.6754 10.425L18.6465 10.5243L18.5809 10.6693L18.6519 10.8408L18.6664 10.8982L18.6829 10.9156L18.7181 11.0004L18.7939 11.0319L18.8273 11.0668L19.0411 11.1343Z" fill="#47C761"/>
<path fill-rule="evenodd" clip-rule="evenodd" d="M34.016 5.64119L33.9982 5.63849C33.7757 5.60164 33.5586 5.72868 33.4816 5.94067C33.4785 5.94936 33.4752 5.95819 33.4719 5.96688C33.3854 6.19505 33.4887 6.45138 33.7092 6.55595C33.9648 6.677 34.2516 6.85452 34.5281 7.11415C34.6367 7.21602 34.7872 7.26022 34.9336 7.23325C35.08 7.20613 35.2048 7.111 35.2698 6.97707C35.3862 6.73692 35.6164 6.41917 36.0458 6.10381C36.6497 5.66022 36.7799 4.80988 36.3363 4.20613C35.8928 3.60224 35.0425 3.47205 34.4386 3.91565C34.3119 4.00868 34.1934 4.10261 34.0828 4.1967C33.9162 4.33842 33.8701 4.57647 33.9713 4.77018C34.1173 5.04913 34.1246 5.36673 34.016 5.64119Z" fill="#6B2E3F"/>
<path fill-rule="evenodd" clip-rule="evenodd" d="M33.3281 6.40859L33.6285 6.5217C33.8027 6.57174 33.9837 6.5981 34.1661 6.59915C34.1694 6.59915 34.1727 6.59915 34.1762 6.59915C34.4198 6.59541 34.6442 6.46582 34.7693 6.25653C34.7709 6.25368 34.7726 6.25099 34.7741 6.24814C35.1113 5.65593 35.1341 4.90537 34.7691 4.27316C34.404 3.64095 33.7426 3.28544 33.0613 3.28125C33.058 3.28125 33.0545 3.28125 33.0512 3.28125C32.8075 3.285 32.5832 3.41473 32.4581 3.62387C32.4565 3.62672 32.4548 3.62956 32.4533 3.63241C32.1161 4.22447 32.0932 4.97503 32.4583 5.60724C32.6679 5.97039 32.9754 6.24215 33.3281 6.40859Z" fill="#35D14A"/>
<path fill-rule="evenodd" clip-rule="evenodd" d="M27.5986 9.01565C27.4988 9.14314 27.4719 9.31318 27.5276 9.46524C27.7119 9.96846 27.9459 10.4543 28.2277 10.9153C28.3128 11.0545 28.4641 11.1392 28.6271 11.1392H35.696C35.8008 11.1392 35.9044 11.1517 36.0047 11.1758C36.1261 11.2049 36.254 11.1843 36.3601 11.1187C36.4663 11.053 36.5418 10.9478 36.57 10.8261C36.7689 9.96711 36.7529 9.13475 36.5268 8.43737C35.6621 5.77055 33.4552 5.42299 33.1611 5.38823C32.841 5.32052 29.9896 4.8125 28.4197 7.72951C28.1361 8.25655 27.8647 8.67602 27.5986 9.01565Z" fill="#FCD148"/>
<path fill-rule="evenodd" clip-rule="evenodd" d="M19.8845 6.5517C19.8769 6.58496 19.873 6.61942 19.873 6.65492C19.873 7.98571 19.5054 9.29043 18.811 10.425C18.7226 10.5695 18.7191 10.7505 18.802 10.8982C18.8847 11.0461 19.0409 11.1375 19.2104 11.1375H28.737C28.9064 11.1375 29.0625 11.0461 29.1454 10.8984C29.2282 10.7507 29.2248 10.5697 29.1365 10.4253C28.443 9.29058 28.0758 7.98616 28.0757 6.65552V6.65477C28.0757 4.3926 26.2418 2.55859 23.9795 2.55859H23.9794C21.7515 2.55859 19.9391 4.33717 19.8845 6.5517Z" fill="#56D971"/>
<path fill-rule="evenodd" clip-rule="evenodd" d="M13.5971 15.2461C13.4602 15.2461 13.3301 15.3061 13.2411 15.4102C13.1521 15.5143 13.1133 15.6521 13.1346 15.7874L14.9497 27.2713C14.9857 27.4989 15.1818 27.6664 15.4122 27.6664H32.7445C32.8489 27.6664 32.9502 27.6315 33.0326 27.5673C34.0008 26.8114 34.6856 25.6987 34.8814 24.406C35.3123 21.5627 35.8843 18.6839 36.2332 16.3817C36.2721 16.1237 36.266 15.8643 36.2175 15.6138C36.171 15.3735 35.9475 15.2096 35.7045 15.2375L35.5539 15.2461H13.5971Z" fill="#EAEFFE"/>
<path fill-rule="evenodd" clip-rule="evenodd" d="M34.9749 23.7445C34.9964 23.6093 34.9574 23.4714 34.8686 23.3673C34.7796 23.2632 34.6495 23.2031 34.5125 23.2031H14.8471C14.7102 23.2031 14.58 23.2631 14.4912 23.3672C14.4022 23.4713 14.3632 23.6091 14.3847 23.7444L14.9414 27.2666C14.9773 27.4942 15.1734 27.6617 15.4038 27.6617H32.7361C32.8405 27.6617 32.9418 27.6268 33.0242 27.5627C33.9925 26.8067 34.6773 25.6941 34.8731 24.4013C34.9063 24.1825 34.9403 23.9636 34.9749 23.7445Z" fill="#2196F3"/>
<path fill-rule="evenodd" clip-rule="evenodd" d="M23.8904 4.00406L23.8902 4.00391C22.4324 4.00391 21.2505 5.18578 21.2505 6.64361L21.2384 6.82083C21.2129 8.08361 20.9119 9.32286 20.36 10.4527C20.2892 10.5978 20.298 10.7691 20.3835 10.9062C20.4691 11.0432 20.6192 11.1263 20.7807 11.1263H26.9889C27.1503 11.1263 27.3004 11.0432 27.3859 10.9062C27.4715 10.7693 27.4805 10.5981 27.4096 10.4529C26.8327 9.27027 26.5302 7.9681 26.5301 6.64436L26.5278 6.6466L26.5281 6.64555L26.5301 6.64361L26.5299 6.63177C26.5236 5.17934 25.3443 4.00391 23.8904 4.00391V4.00406Z" fill="#FEECBA"/>
<path fill-rule="evenodd" clip-rule="evenodd" d="M12.9681 10.1953C12.8312 10.1953 12.7011 10.2554 12.6121 10.3594C12.5233 10.4635 12.4843 10.6013 12.5058 10.7366L13.304 15.7877C13.3399 16.0151 13.536 16.1827 13.7664 16.1827H35.7233C36.3231 16.1827 36.8983 15.9444 37.3224 15.5204C37.7465 15.0963 37.9847 14.521 37.9847 13.9213C37.9847 13.4458 37.9847 12.9322 37.9847 12.4567C37.9847 11.857 37.7465 11.2818 37.3224 10.8578C36.8983 10.4337 36.3231 10.1953 35.7233 10.1953H12.9681Z" fill="#2196F3"/>
<path fill-rule="evenodd" clip-rule="evenodd" d="M33.1838 31.592L33.3309 31.5919C34.6404 31.5588 35.6933 30.4852 35.6933 29.1678C35.6933 27.8293 34.6067 26.7427 33.2684 26.7427H15.7721L12.9648 8.97989C12.7784 7.80146 11.7627 6.93359 10.5696 6.93359H4.30768C2.9694 6.93359 1.88281 8.02019 1.88281 9.35846C1.88281 10.6969 2.9694 11.7835 4.30768 11.7835H8.49824L11.3051 29.5463C11.4914 30.7248 12.5072 31.5928 13.7003 31.5928L14.0066 31.592C14.1303 31.5854 14.2469 31.53 14.3302 31.4371C14.8485 30.8594 15.6007 30.4955 16.4374 30.4955C17.274 30.4955 18.0263 30.8594 18.5445 31.4371C18.6334 31.5361 18.7601 31.5928 18.893 31.5928H28.2972C28.4302 31.5928 28.557 31.5361 28.6457 31.4371C29.164 30.8594 29.9162 30.4955 30.7529 30.4955C31.5896 30.4955 32.3418 30.8594 32.8602 31.4371C32.9433 31.53 33.0599 31.5854 33.1838 31.592Z" fill="#5B5B81"/>
<path d="M16.5794 37.0846C18.6598 37.0846 20.3463 35.3981 20.3463 33.3177C20.3463 31.2373 18.6598 29.5508 16.5794 29.5508C14.499 29.5508 12.8125 31.2373 12.8125 33.3177C12.8125 35.3981 14.499 37.0846 16.5794 37.0846Z" fill="#36464D"/>
<path d="M30.9544 37.0846C33.0348 37.0846 34.7213 35.3981 34.7213 33.3177C34.7213 31.2373 33.0348 29.5508 30.9544 29.5508C28.874 29.5508 27.1875 31.2373 27.1875 33.3177C27.1875 35.3981 28.874 37.0846 30.9544 37.0846Z" fill="#36464D"/>
<path d="M30.9731 35.2373C32.031 35.2373 32.8886 34.3797 32.8886 33.3218C32.8886 32.2639 32.031 31.4062 30.9731 31.4062C29.9152 31.4062 29.0576 32.2639 29.0576 33.3218C29.0576 34.3797 29.9152 35.2373 30.9731 35.2373Z" fill="#EAEFFE"/>
<path d="M16.602 35.2373C17.6599 35.2373 18.5175 34.3797 18.5175 33.3218C18.5175 32.2639 17.6599 31.4062 16.602 31.4062C15.5441 31.4062 14.6865 32.2639 14.6865 33.3218C14.6865 34.3797 15.5441 35.2373 16.602 35.2373Z" fill="#EAEFFE"/>
</svg>
