<svg width="40" height="40" viewBox="0 0 40 40" fill="none" xmlns="http://www.w3.org/2000/svg">
<path fill-rule="evenodd" clip-rule="evenodd" d="M12.4262 5.57921C12.2221 5.69682 12.1371 5.9479 12.2278 6.16528C12.2666 6.25816 12.2529 6.37532 12.2203 6.50236C12.1462 6.7924 11.9507 7.11225 11.6666 7.39629C11.3971 7.66581 11.0953 7.85517 10.8168 7.93787C10.6509 7.98715 10.4985 8.01996 10.4015 7.93742C10.2985 7.84993 10.163 7.81112 10.0295 7.83105C9.89585 7.85097 9.77735 7.92753 9.70439 8.04109C9.42439 8.47689 9.2151 8.93427 9.08357 9.40723C9.04432 9.5482 9.07323 9.69936 9.16177 9.81592C9.25031 9.93247 9.38829 10.0008 9.5345 10.0008H30.3986C30.5448 10.0008 30.6828 9.93247 30.7714 9.81592C30.8599 9.69936 30.8888 9.5482 30.8496 9.40723C30.477 8.0676 29.4738 6.84813 28.0124 5.88993C27.9018 5.81757 27.7658 5.79509 27.6379 5.82835C27.5099 5.86161 27.4021 5.94745 27.3408 6.06461C27.197 6.33996 26.9086 6.52828 26.5765 6.52828C26.101 6.52828 25.7149 6.14221 25.7149 5.6667C25.7149 5.53846 25.7427 5.41682 25.7931 5.3076C25.8479 5.18835 25.8503 5.05157 25.7995 4.93067C25.7487 4.80963 25.6496 4.71554 25.526 4.6712C24.6941 4.37262 23.7902 4.13846 22.8343 3.98101C22.6118 3.94431 22.3949 4.0715 22.3182 4.28333C22.2578 4.44978 22.1793 4.61861 22.0833 4.78506C21.8362 5.21292 21.5188 5.5482 21.1979 5.73712C20.9869 5.86131 20.7839 5.94071 20.6247 5.84873C20.4956 5.77427 20.4547 5.61037 20.4392 5.42281C20.4148 5.12513 20.4867 4.76723 20.6418 4.40333C20.7029 4.25966 20.6885 4.09517 20.6033 3.96438C20.5182 3.8336 20.3735 3.7539 20.2174 3.7518C20.1341 3.7506 20.0505 3.75 19.9666 3.75C18.4875 3.75 17.0771 3.92873 15.7919 4.25142C15.6481 4.28753 15.5299 4.38955 15.4732 4.52663C15.4166 4.66356 15.4281 4.81936 15.5045 4.9464C15.6254 5.14805 15.7027 5.3488 15.717 5.52768C15.7242 5.61637 15.7248 5.69861 15.6722 5.75135C15.583 5.84034 15.434 5.80828 15.2723 5.76348C14.9883 5.68483 14.6776 5.49232 14.401 5.21577C14.3517 5.16648 14.3053 5.11614 14.2615 5.06506C14.1291 4.90985 13.9113 4.85846 13.7234 4.93772C13.2642 5.13172 12.8307 5.34625 12.4262 5.57921Z" fill="#FFEFE0"/>
<path fill-rule="evenodd" clip-rule="evenodd" d="M8.68703 14.8848C8.46246 14.7841 8.19819 14.8745 8.08239 15.0917C7.88988 15.4526 7.7504 15.8481 7.6752 16.2691C6.85527 20.7278 6.19969 25.1904 6.72553 29.6268L6.72583 29.6289C6.77332 30.0304 6.85168 30.4216 6.95834 30.8C5.96224 31.5118 5.3125 32.6781 5.3125 33.9948C5.3125 36.1608 7.071 37.9194 9.23714 37.9194C10.6148 37.9194 11.8277 37.2081 12.5279 36.1329C13.0897 36.2655 13.6746 36.3353 14.2741 36.3353C17.8331 36.3353 22.2602 36.3353 25.8192 36.3353C26.4187 36.3353 27.0036 36.2655 27.5655 36.133C28.2656 37.2081 29.4785 37.9194 30.8562 37.9194C33.0222 37.9194 34.7808 36.1608 34.7808 33.9948C34.7808 32.6779 34.1311 31.5118 33.1348 30.7999C33.2415 30.4214 33.3198 30.0304 33.3675 29.6289L33.3678 29.6268C33.8936 25.1904 33.2379 20.7278 32.4219 16.2685C32.3524 15.8781 32.2265 15.5076 32.0539 15.1665C31.9461 14.953 31.6947 14.8553 31.471 14.9396C31.2076 15.039 30.9263 15.0912 30.6394 15.0912H9.65153C9.3158 15.0912 8.98756 15.0196 8.68703 14.8848Z" fill="#E8A882"/>
<path fill-rule="evenodd" clip-rule="evenodd" d="M33.8248 12.3751C33.8248 11.5017 33.4778 10.6641 32.8603 10.0465C32.2427 9.429 31.4051 9.08203 30.5317 9.08203C25.4132 9.08203 14.6624 9.08203 9.54386 9.08203C8.67045 9.08203 7.83285 9.429 7.21532 10.0465C6.59779 10.6641 6.25083 11.5017 6.25098 12.3751C6.25098 12.4985 6.25098 12.6226 6.25098 12.7461C6.25083 13.6194 6.59779 14.457 7.21532 15.0745C7.83285 15.6921 8.67045 16.039 9.54386 16.039C14.6624 16.039 25.4132 16.039 30.5317 16.039C31.4051 16.039 32.2427 15.6921 32.8603 15.0745C33.4778 14.457 33.8248 13.6194 33.8248 12.7461V12.3751Z" fill="#9D6F49"/>
<path fill-rule="evenodd" clip-rule="evenodd" d="M23.3086 20.4517C23.1004 20.5219 22.969 20.7274 22.9927 20.9458C23.0181 21.1813 22.908 21.4215 22.6912 21.5505C22.2376 21.8204 21.8193 22.1055 21.4328 22.4028C21.2586 22.5367 21.2009 22.774 21.2945 22.9729C21.3733 23.1406 21.496 23.2897 21.6578 23.401C21.6659 23.4065 21.6742 23.4117 21.6826 23.4168C22.408 23.8513 23.4259 23.9992 24.4596 23.7222C25.4932 23.4452 26.3008 22.8085 26.7122 22.0697C26.717 22.0609 26.7217 22.0519 26.726 22.0429C26.9525 21.5662 26.7994 20.9954 26.3645 20.6962C26.3564 20.6907 26.3482 20.6855 26.3398 20.6804C25.6144 20.2459 24.5966 20.098 23.5627 20.375C23.4764 20.3981 23.3916 20.4239 23.3086 20.4517Z" fill="#FAE6D6"/>
<path fill-rule="evenodd" clip-rule="evenodd" d="M19.3578 24.6259C19.3252 24.6516 19.2962 24.6817 19.2715 24.7153C18.9773 25.1153 18.7205 25.5193 18.4967 25.9208C18.4453 26.0131 18.4266 26.1202 18.4437 26.2245C18.4896 26.5051 18.6463 26.765 18.895 26.9361C18.9031 26.9417 18.9114 26.9469 18.9198 26.952C19.6452 27.3865 20.6631 27.5343 21.6968 27.2573C22.7304 26.9803 23.538 26.3436 23.9494 25.6049C23.9542 25.596 23.9589 25.5872 23.9632 25.5781C24.1897 25.1014 24.0366 24.5306 23.6017 24.2315C23.5936 24.2259 23.5854 24.2206 23.577 24.2155C22.8516 23.7811 21.8338 23.6332 20.7999 23.9102C20.2455 24.0588 19.7553 24.3106 19.3578 24.6259Z" fill="#FAE6D6"/>
<path fill-rule="evenodd" clip-rule="evenodd" d="M16.9584 30.383C16.943 30.4224 16.9328 30.4636 16.9283 30.5056C16.8997 30.7722 16.8838 31.0071 16.8754 31.2031C16.8723 31.2783 16.8872 31.3531 16.919 31.4212C17.0374 31.6746 17.2535 31.88 17.5335 31.9793C17.5427 31.9826 17.5521 31.9856 17.5616 31.9883C18.3747 32.2202 19.3962 32.0996 20.3229 31.5644C21.2496 31.0293 21.8649 30.2052 22.0711 29.3853C22.0735 29.3755 22.0757 29.3656 22.0775 29.3558C22.1729 28.8367 21.8772 28.325 21.3798 28.1486C21.3705 28.1453 21.3613 28.1424 21.3517 28.1397C20.5386 27.9077 19.5172 28.0284 18.5903 28.5634C17.7989 29.0205 17.2336 29.6883 16.9584 30.383Z" fill="#FAE6D6"/>
<path fill-rule="evenodd" clip-rule="evenodd" d="M15.3246 27.5604C15.2898 27.6732 15.2991 27.795 15.3504 27.9014C15.435 28.0768 15.5054 28.2651 15.5587 28.4642C15.7608 29.2185 15.6776 29.9636 15.3661 30.4981C15.3319 30.5402 15.2841 30.558 15.2376 30.5516C15.1078 30.5336 14.9766 30.5707 14.8755 30.6539C14.7745 30.737 14.7128 30.8588 14.7056 30.9895C14.6699 31.637 14.6978 32.0286 14.6993 32.0485C14.7605 32.9072 15.5072 33.555 16.3661 33.4942C17.2251 33.4334 17.8734 32.6866 17.8125 31.8274C17.8127 31.8295 17.4236 25.7787 23.1766 22.3547C23.9167 21.9141 24.1599 20.9556 23.7193 20.2155C23.2789 19.4755 22.3204 19.2322 21.5802 19.6726C21.2786 19.8522 20.9902 20.0374 20.7141 20.2277C20.6157 20.2954 20.5469 20.3985 20.5219 20.5153C20.4143 21.0193 20.1881 21.4573 19.8795 21.764C19.8275 21.8021 19.7637 21.8025 19.7159 21.7694C19.6847 21.7393 19.657 21.7099 19.6301 21.6797C19.5457 21.5847 19.4263 21.5282 19.2996 21.5228C19.1727 21.5176 19.0491 21.5642 18.9571 21.6516C18.4133 22.1698 17.9382 22.7072 17.5231 23.2525C17.4489 23.3501 17.4158 23.4728 17.4311 23.5943C17.506 24.1932 17.4037 24.7624 17.1525 25.1931C17.1131 25.2416 17.0516 25.2585 16.997 25.2389C16.9579 25.2172 16.9225 25.1955 16.8877 25.1724C16.7761 25.0985 16.6385 25.0761 16.5092 25.1104C16.3799 25.1447 16.2716 25.2326 16.2113 25.352C15.8284 26.1113 15.5406 26.8575 15.3246 27.5604Z" fill="#985428"/>
<path fill-rule="evenodd" clip-rule="evenodd" d="M19.1605 17.2297C19.153 17.2361 19.1458 17.2427 19.1388 17.2496C18.5313 17.8378 18.125 18.7827 18.125 19.8529C18.125 20.923 18.5311 21.8679 19.1382 22.4564C19.1454 22.4634 19.1529 22.4701 19.1605 22.4767C19.5625 22.8189 20.1533 22.8186 20.5548 22.4761C20.5623 22.4697 20.5695 22.4631 20.5765 22.4562C21.184 21.868 21.5903 20.9232 21.5903 19.8529C21.5903 18.7828 21.1842 17.8379 20.5771 17.2495C20.5699 17.2424 20.5625 17.2357 20.5548 17.2291C20.153 16.8869 19.562 16.8872 19.1605 17.2297Z" fill="#FAE6D6"/>
<path fill-rule="evenodd" clip-rule="evenodd" d="M15.1572 21.0125C15.1516 21.0206 15.1464 21.0288 15.1413 21.0373C14.7068 21.7627 14.559 22.7806 14.836 23.8143C15.113 24.848 15.7497 25.6555 16.4884 26.0669C16.4973 26.0718 16.5062 26.0763 16.5152 26.0806C16.9919 26.3073 17.5627 26.154 17.8619 25.7191C17.8674 25.711 17.8727 25.7028 17.8778 25.6944C18.3122 24.969 18.4601 23.9512 18.1831 22.9175C17.9061 21.8838 17.2694 21.0763 16.5307 20.6649C16.5218 20.66 16.5128 20.6553 16.5038 20.651C16.0271 20.4245 15.4564 20.5777 15.1572 21.0125Z" fill="#FAE6D6"/>
<path fill-rule="evenodd" clip-rule="evenodd" d="M13.582 26.3055C13.5765 26.3136 13.5711 26.3218 13.5661 26.3302C13.1315 27.0556 12.9838 28.0736 13.2608 29.1073C13.5377 30.1408 14.1745 30.9485 14.9133 31.3599C14.9219 31.3646 14.9309 31.3693 14.9401 31.3736C15.4168 31.6002 15.9874 31.447 16.2866 31.0121C16.2921 31.004 16.2975 30.9958 16.3025 30.9874C16.7371 30.262 16.8848 29.2442 16.6079 28.2103C16.3309 27.1768 15.6941 26.3693 14.9554 25.9578C14.9467 25.953 14.9377 25.9483 14.9285 25.944C14.4518 25.7175 13.8812 25.8706 13.582 26.3055Z" fill="#FAE6D6"/>
<path fill-rule="evenodd" clip-rule="evenodd" d="M22.9267 2.18964C22.5819 1.99054 22.1491 1.97661 21.6971 2.16223C21.1699 2.37871 20.5995 2.88537 20.1892 3.59609C19.7789 4.3068 19.6253 5.05406 19.7014 5.61886C19.7666 6.10305 19.9952 6.47099 20.3401 6.67009C20.6849 6.8692 21.1179 6.88313 21.5699 6.69766C22.0971 6.48103 22.6673 5.97451 23.0776 5.26365C23.4879 4.55294 23.6416 3.80582 23.5655 3.24088C23.5002 2.75684 23.2717 2.38889 22.9269 2.18979L22.9267 2.18964Z" fill="#F7CDA6"/>
<path fill-rule="evenodd" clip-rule="evenodd" d="M13.4385 3.28989C13.1898 3.53858 13.0758 3.90368 13.1308 4.33169C13.1925 4.81184 13.481 5.39237 13.9739 5.88525C14.4669 6.37828 15.0473 6.66667 15.5276 6.7284C15.9555 6.78353 16.3206 6.66952 16.5693 6.42083C16.8179 6.17214 16.932 5.80705 16.877 5.37918C16.8152 4.89888 16.5269 4.31851 16.0338 3.82547C15.5408 3.33244 14.9604 3.04405 14.4801 2.98233C14.0523 2.92735 13.6872 3.04121 13.4385 3.28989Z" fill="#F7CDA6"/>
<path d="M26.794 7.46299C27.787 7.46299 28.5919 6.65804 28.5919 5.66509C28.5919 4.67214 27.787 3.86719 26.794 3.86719C25.801 3.86719 24.9961 4.67214 24.9961 5.66509C24.9961 6.65804 25.801 7.46299 26.794 7.46299Z" fill="#F7CDA6"/>
<path fill-rule="evenodd" clip-rule="evenodd" d="M12.8349 5.47738C12.5863 5.22884 12.2212 5.11484 11.7933 5.16982C11.313 5.23154 10.7325 5.51993 10.2396 6.01297C9.74656 6.506 9.45817 7.08637 9.39644 7.56667C9.34131 7.99454 9.45532 8.35963 9.70401 8.60832C9.9527 8.85701 10.3178 8.97102 10.7457 8.91604C11.226 8.85416 11.8063 8.56577 12.2994 8.07289C12.7924 7.57986 13.0808 6.99933 13.1425 6.51918C13.1975 6.09132 13.0836 5.72607 12.8349 5.47738Z" fill="#F7CDA6"/>
</svg>
