<svg width="40" height="40" viewBox="0 0 40 40" fill="none" xmlns="http://www.w3.org/2000/svg">
<path fill-rule="evenodd" clip-rule="evenodd" d="M4.39679 18.3383C4.24429 18.2732 4.06856 18.2938 3.93522 18.3923C3.80174 18.4909 3.73043 18.6527 3.74766 18.8178L5.10376 31.7458C5.36818 34.2658 7.49282 36.1792 10.0266 36.1792C15.3707 36.1792 24.7408 36.1792 30.0849 36.1792C32.6187 36.1792 34.7433 34.2658 35.0076 31.7458L36.3637 18.8178C36.3811 18.6527 36.3098 18.4909 36.1763 18.3923C36.0428 18.2938 35.8672 18.2732 35.7145 18.3383C35.4476 18.452 35.1535 18.5149 34.8449 18.5149H5.26646C4.95784 18.5149 4.66391 18.452 4.39679 18.3383Z" fill="#E2A773"/>
<path fill-rule="evenodd" clip-rule="evenodd" d="M10.6201 18.9838V31.2301C10.6201 31.4885 10.83 31.6982 11.0883 31.6982C11.3467 31.6982 11.5564 31.4885 11.5564 31.2301V18.9838C11.5564 18.7254 11.3467 18.5156 11.0883 18.5156C10.83 18.5156 10.6201 18.7254 10.6201 18.9838Z" fill="#C3895C"/>
<path fill-rule="evenodd" clip-rule="evenodd" d="M19.3828 18.9838V31.2301C19.3828 31.4885 19.5927 31.6982 19.851 31.6982C20.1094 31.6982 20.3191 31.4885 20.3191 31.2301V18.9838C20.3191 18.7254 20.1094 18.5156 19.851 18.5156C19.5927 18.5156 19.3828 18.7254 19.3828 18.9838Z" fill="#C3895C"/>
<path fill-rule="evenodd" clip-rule="evenodd" d="M28.4385 18.9838V31.2301C28.4385 31.4885 28.6484 31.6982 28.9066 31.6982C29.1651 31.6982 29.3748 31.4885 29.3748 31.2301V18.9838C29.3748 18.7254 29.1651 18.5156 28.9066 18.5156C28.6484 18.5156 28.4385 18.7254 28.4385 18.9838Z" fill="#C3895C"/>
<path fill-rule="evenodd" clip-rule="evenodd" d="M17.0579 12.585C17.1195 12.4403 17.1042 12.2746 17.0176 12.1435C16.9309 12.0124 16.7842 11.9336 16.6271 11.9336H5.03982C3.2963 11.9336 1.88281 13.3471 1.88281 15.0907V16.2891C1.88281 18.0328 3.2963 19.4463 5.03982 19.4463H34.6182C36.3619 19.4463 37.7754 18.0328 37.7754 16.2891V15.0907C37.7754 13.3471 36.3619 11.9336 34.6182 11.9336H23.031C22.8738 11.9336 22.7273 12.0124 22.6406 12.1435C22.5538 12.2746 22.5387 12.4403 22.6001 12.585C22.7535 12.9457 22.8383 13.3427 22.8383 13.7594C22.8383 15.4202 21.4899 16.7686 19.829 16.7686C18.1682 16.7686 16.8199 15.4202 16.8199 13.7594C16.8199 13.3427 16.9047 12.9457 17.0579 12.585Z" fill="#9D6F49"/>
<path fill-rule="evenodd" clip-rule="evenodd" d="M19.8879 3.76953C19.7819 3.76953 19.8879 3.76953 19.8879 3.76953C20.6849 3.76953 21.4492 4.08609 22.0126 4.64968C22.5762 5.21313 22.8928 5.97747 22.8928 6.77448C22.8928 6.77448 22.8928 11.1946 22.8926 11.1943C23.4792 11.8829 23.8335 12.7757 23.8335 13.7504C23.8335 15.928 22.0655 17.696 19.8879 17.696C17.7103 17.696 15.9424 15.928 15.9424 13.7504C15.9424 12.7758 16.2965 11.8832 16.8831 11.1944V6.77448C16.8831 5.97747 17.1996 5.21313 17.7631 4.64968C18.3267 4.08609 19.091 3.76953 19.8879 3.76953Z" fill="#634B38"/>
<path fill-rule="evenodd" clip-rule="evenodd" d="M35.1055 30.7617H4.99512L5.09834 31.7463C5.36276 34.2663 7.4874 36.1797 10.0212 36.1797C15.3653 36.1797 24.7353 36.1797 30.0795 36.1797C32.6132 36.1797 34.7379 34.2663 35.0022 31.7463L35.1055 30.7617Z" fill="#F1D0A7"/>
<path d="M20.0402 15.9984C21.2705 15.9984 22.2679 15.001 22.2679 13.7707C22.2679 12.5404 21.2705 11.543 20.0402 11.543C18.8099 11.543 17.8125 12.5404 17.8125 13.7707C17.8125 15.001 18.8099 15.9984 20.0402 15.9984Z" fill="white"/>
</svg>
