<svg width="222" height="160" viewBox="0 0 222 160" fill="none" xmlns="http://www.w3.org/2000/svg">
<circle cx="65.3498" cy="2.74825" r="2.74825" fill="#C4C4C4"/>
<circle cx="65.3498" cy="105.35" r="2.74825" fill="#C4C4C4"/>
<circle cx="65.3498" cy="54.049" r="2.74825" fill="#C4C4C4"/>
<circle cx="65.3498" cy="156.651" r="2.74825" fill="#C4C4C4"/>
<circle cx="167.951" cy="2.74825" r="2.74825" fill="#C4C4C4"/>
<circle cx="167.951" cy="105.35" r="2.74825" fill="#C4C4C4"/>
<circle cx="167.951" cy="54.049" r="2.74825" fill="#C4C4C4"/>
<circle cx="167.951" cy="156.651" r="2.74825" fill="#C4C4C4"/>
<circle cx="14.049" cy="2.74825" r="2.74825" fill="#C4C4C4"/>
<circle cx="14.049" cy="105.35" r="2.74825" fill="#C4C4C4"/>
<circle cx="14.049" cy="54.049" r="2.74825" fill="#C4C4C4"/>
<circle cx="14.049" cy="156.651" r="2.74825" fill="#C4C4C4"/>
<circle cx="116.651" cy="2.74825" r="2.74825" fill="#C4C4C4"/>
<circle cx="116.651" cy="105.35" r="2.74825" fill="#C4C4C4"/>
<circle cx="116.651" cy="54.049" r="2.74825" fill="#C4C4C4"/>
<circle cx="116.651" cy="156.651" r="2.74825" fill="#C4C4C4"/>
<circle cx="219.252" cy="2.74825" r="2.74825" fill="#C4C4C4"/>
<circle cx="219.252" cy="105.35" r="2.74825" fill="#C4C4C4"/>
<circle cx="219.252" cy="54.049" r="2.74825" fill="#C4C4C4"/>
<circle cx="219.252" cy="156.651" r="2.74825" fill="#C4C4C4"/>
</svg>
