<svg width="48" height="48" viewBox="0 0 48 48" fill="none" xmlns="http://www.w3.org/2000/svg">
<path fill-rule="evenodd" clip-rule="evenodd" d="M9.6266 13.7007L9.62714 13.6997C7.92071 16.6607 6.92871 20.1867 6.92871 23.97C6.92871 27.7532 7.92053 31.279 9.64098 34.232C10.421 35.5927 10.6443 37.2024 10.2641 38.724L10.1393 39.2232C9.76161 40.7337 10.101 42.3339 11.0592 43.561C12.0174 44.7884 13.4875 45.5057 15.0445 45.5057C20.2046 45.5057 27.7352 45.5057 32.8953 45.5057C34.4521 45.5057 35.9223 44.7884 36.8805 43.561C37.8386 42.3341 38.178 40.7343 37.8004 39.224L37.7995 39.2195C37.7915 39.1866 37.7483 39.0082 37.6982 38.7492C37.6962 38.7395 37.694 38.7296 37.6917 38.7201C37.3122 37.2022 37.5349 35.5966 38.3132 34.2395C40.0191 31.2793 41.0111 27.7534 41.0111 23.97C41.0111 20.1868 40.0191 16.6613 38.2988 13.7081C37.5186 12.3476 37.2953 10.7379 37.6757 9.21623L37.8004 8.717C38.178 7.20653 37.8387 5.60635 36.8805 4.37902C35.9223 3.15187 34.4521 2.43457 32.8953 2.43457C27.7352 2.43457 20.2046 2.43457 15.0445 2.43457C13.4875 2.43457 12.0174 3.15187 11.0592 4.37902C10.101 5.60635 9.76161 7.20653 10.1393 8.717L10.2481 9.22019C10.6276 10.7379 10.4048 12.3436 9.6266 13.7007ZM9.62714 13.6997L9.6266 13.7007C9.62678 13.7004 9.62696 13.7 9.62714 13.6997Z" fill="#EF9839"/>
<path fill-rule="evenodd" clip-rule="evenodd" d="M10.4264 10.5494H37.4951C37.5052 10.1031 37.5647 9.65596 37.6747 9.21623L37.7995 8.717C38.177 7.20652 37.8378 5.60635 36.8796 4.37902C35.9214 3.15187 34.4512 2.43457 32.8943 2.43457C27.7342 2.43457 20.2036 2.43457 15.0435 2.43457C13.4865 2.43457 12.0165 3.15187 11.0583 4.37902C10.1001 5.60635 9.76065 7.20652 10.1384 8.717L10.2471 9.22019C10.3568 9.65866 10.4161 10.1045 10.4264 10.5494Z" fill="#FFC98E"/>
<path fill-rule="evenodd" clip-rule="evenodd" d="M37.5115 37.3906H10.4427C10.4325 37.837 10.373 38.2841 10.2631 38.7238L10.1384 39.2231C9.76065 40.7335 10.1001 42.3337 11.0583 43.5609C12.0165 44.7882 13.4865 45.5055 15.0435 45.5055C20.2036 45.5055 27.7342 45.5055 32.8943 45.5055C34.4512 45.5055 35.9214 44.7882 36.8796 43.5609C37.8376 42.3339 38.177 40.7341 37.7995 39.2238L37.7986 39.2193C37.7905 39.1864 37.7473 39.0081 37.6972 38.749C37.6952 38.7393 37.6931 38.7294 37.6907 38.7199C37.5811 38.2814 37.5217 37.8356 37.5115 37.3906Z" fill="#FFC98E"/>
<path d="M23.9696 34.2703C29.658 34.2703 34.2693 29.6589 34.2693 23.9706C34.2693 18.2822 29.658 13.6709 23.9696 13.6709C18.2812 13.6709 13.6699 18.2822 13.6699 23.9706C13.6699 29.6589 18.2812 34.2703 23.9696 34.2703Z" fill="#EAEFFE"/>
<path fill-rule="evenodd" clip-rule="evenodd" d="M30.8035 25.5552C30.7377 25.5298 30.6729 25.5196 30.6061 25.5196C28.7488 25.5196 27.1483 24.4118 26.4295 22.8217C26.3312 22.604 26.1058 22.4722 25.8677 22.4934C25.6297 22.5148 25.4312 22.6842 25.3728 22.9159C24.9101 24.755 23.3343 26.1537 21.4046 26.3523C21.2338 26.3699 21.0805 26.4647 20.9883 26.6096C20.8961 26.7543 20.8752 26.9334 20.9315 27.0957C21.7063 29.3256 23.8278 30.9283 26.3208 30.9283C28.8265 30.9283 30.9568 29.3094 31.7219 27.0615C31.7245 27.0542 31.7268 27.0468 31.7291 27.0392C31.8332 26.6853 31.7645 26.3031 31.5434 26.0077C31.3624 25.7655 31.0965 25.6052 30.8035 25.5552Z" fill="#E7AB15"/>
<path fill-rule="evenodd" clip-rule="evenodd" d="M16.4479 22.1277C16.1549 22.1777 15.889 22.338 15.7077 22.5802C15.4868 22.8756 15.4181 23.2578 15.5222 23.6117C15.5244 23.6193 15.5269 23.6267 15.5294 23.634C16.2945 25.8818 18.4249 27.5008 20.9304 27.5008C24.0786 27.5008 26.6345 24.945 26.6345 21.7969C26.6345 19.2937 25.0185 17.1646 22.779 16.3797C22.7704 16.3769 22.7618 16.374 22.753 16.3713C22.3931 16.2647 22.004 16.3341 21.7034 16.5586C21.4027 16.7832 21.2256 17.1364 21.2258 17.5118V17.5116C21.2258 20.0396 19.1733 22.0921 16.6453 22.0921C16.5784 22.0921 16.5137 22.1023 16.4479 22.1277Z" fill="#FFC636"/>
</svg>
