<svg width="64" height="64" viewBox="0 0 64 64" fill="none" xmlns="http://www.w3.org/2000/svg">
<path fill-rule="evenodd" clip-rule="evenodd" d="M34.0619 15.5104C33.9423 15.5506 33.8242 15.5691 33.7055 15.5674C33.7048 15.5674 33.7043 15.5674 33.7038 15.5674C33.0653 15.5597 32.4464 15.599 31.8514 15.6861C31.4837 15.74 31.2109 16.0557 31.2109 16.4275C31.2112 16.7992 31.484 17.1147 31.8519 17.1686C33.4277 17.3987 34.8067 18.0179 35.8599 19.0711C37.2607 20.4717 37.8926 22.4449 37.8698 24.6952C37.866 25.0061 37.9192 25.316 38.0268 25.6087L38.0621 25.7137C38.1956 26.0342 38.3928 26.3244 38.6419 26.5665C40.2508 28.1378 41.1985 29.9794 41.1985 31.9596C41.1985 33.9397 40.2512 35.7809 38.6445 37.3562C38.4218 37.5733 38.2402 37.8301 38.1088 38.1131L38.0592 38.2124C37.9264 38.5331 37.8607 38.8776 37.8655 39.2246C37.8928 41.4737 37.2607 43.4472 35.8599 44.8482C34.8064 45.9017 33.4272 46.5209 31.8509 46.7527C31.4835 46.8068 31.2112 47.122 31.2109 47.4936C31.2109 47.8651 31.4832 48.1806 31.8507 48.2347C32.4447 48.3225 33.0624 48.3627 33.6995 48.3563C33.7002 48.3563 33.7007 48.3563 33.7014 48.3563C33.846 48.3543 33.9891 48.3819 34.1226 48.4373C34.1434 48.4461 34.1648 48.4538 34.1861 48.4603C34.3004 48.5171 34.398 48.5885 34.4816 48.6746C34.4821 48.6751 34.4824 48.6753 34.4828 48.6758C36.3614 50.5991 38.5832 51.685 40.9488 51.685C43.3134 51.685 45.534 50.6003 47.4152 48.6815C47.4154 48.6813 47.4159 48.6808 47.4164 48.6803C47.518 48.5761 47.6398 48.4936 47.7745 48.4378C47.7956 48.4289 47.8159 48.4193 47.8358 48.409C47.9552 48.3687 48.0734 48.3503 48.1923 48.3519C48.1928 48.3519 48.1935 48.3519 48.194 48.3519C50.8829 48.3843 53.2231 47.5811 54.8967 45.9075C56.5696 44.2349 57.3726 41.8963 57.3455 39.2088C57.3455 39.2083 57.3455 39.2076 57.3455 39.2071C57.3436 39.0626 57.3711 38.9193 57.4265 38.786C57.4354 38.7649 57.443 38.7438 57.4495 38.7225C57.5063 38.6081 57.5777 38.5106 57.6638 38.4269C57.6643 38.4264 57.6645 38.426 57.665 38.4257C59.5883 36.5472 60.6742 34.3254 60.6742 31.9596C60.6742 29.5952 59.5895 27.3743 57.6707 25.4934C57.6705 25.4929 57.67 25.4927 57.6695 25.4922C57.5653 25.3903 57.4828 25.2686 57.427 25.1341C57.4181 25.113 57.4085 25.0926 57.3982 25.0727C57.3579 24.9531 57.3395 24.8349 57.3412 24.7163C57.3412 24.7156 57.3412 24.7151 57.3412 24.7146C57.3735 22.0254 56.5703 19.6852 54.8967 18.0116C53.2241 16.339 50.8855 15.5358 48.198 15.5631C48.1975 15.5631 48.1968 15.5631 48.1963 15.5631C48.0518 15.565 47.9085 15.5372 47.7752 15.4818C47.7541 15.4732 47.733 15.4655 47.7117 15.4588C47.5973 15.402 47.4998 15.3308 47.4161 15.2448C47.4156 15.2443 47.4152 15.2438 47.4149 15.2436C45.5364 13.32 43.3146 12.2344 40.9488 12.2344C38.5844 12.2344 36.3635 13.319 34.4826 15.2376C34.4821 15.2381 34.4819 15.2385 34.4814 15.239C34.3795 15.3433 34.2578 15.4257 34.1233 15.4816C34.1022 15.4902 34.0818 15.5001 34.0619 15.5104Z" fill="#B37A3D"/>
<path fill-rule="evenodd" clip-rule="evenodd" d="M16.2098 15.4586C16.188 15.4653 16.1664 15.473 16.1451 15.4818C16.0116 15.5372 15.8685 15.565 15.7239 15.5631C15.7232 15.5631 15.7227 15.5631 15.722 15.5631C13.0347 15.5358 10.6962 16.339 9.02335 18.0116C7.34976 19.6852 6.54653 22.0254 6.57913 24.7146C6.57913 24.7151 6.57913 24.7156 6.57913 24.7163C6.58081 24.8371 6.56163 24.9574 6.5228 25.0715C6.51201 25.0917 6.50218 25.1125 6.49331 25.1341C6.43746 25.2686 6.35501 25.3903 6.25074 25.4922C6.25026 25.4927 6.24978 25.4929 6.2493 25.4934C4.33074 27.3743 3.24609 29.5952 3.24609 31.9596C3.24609 34.3254 4.3317 36.5472 6.25529 38.4257C6.25553 38.426 6.25601 38.4264 6.25649 38.4269C6.34422 38.512 6.41637 38.6117 6.4703 38.7213C6.47701 38.7428 6.48469 38.7647 6.49355 38.786C6.54892 38.9193 6.57673 39.0626 6.57481 39.2071C6.57481 39.2076 6.57481 39.2083 6.57481 39.2088C6.54749 41.8963 7.35072 44.2349 9.02335 45.9075C10.6969 47.5811 13.0371 48.3843 15.7263 48.3519C15.7268 48.3519 15.7273 48.3519 15.728 48.3519C15.8488 48.3503 15.9691 48.3692 16.0832 48.4083C16.1034 48.4191 16.1242 48.4289 16.1458 48.4378C16.2803 48.4936 16.402 48.5761 16.5039 48.6803C16.5044 48.6808 16.5046 48.6813 16.5051 48.6815C18.386 50.6003 20.6069 51.685 22.9713 51.685C25.3371 51.685 27.5589 50.5991 29.4374 48.6758C29.4377 48.6753 29.4382 48.6751 29.4386 48.6746C29.5237 48.5868 29.6234 48.5147 29.733 48.4608C29.7546 48.4541 29.7764 48.4461 29.7977 48.4373C29.931 48.3819 30.0743 48.3543 30.2189 48.3563C30.2193 48.3563 30.2201 48.3563 30.2205 48.3563C32.9081 48.3834 35.2466 47.5804 36.9192 45.9075C38.5928 44.2339 39.396 41.8937 39.3637 39.2047C39.3637 39.2043 39.3637 39.2035 39.3637 39.2031C39.362 39.0823 39.3809 38.9619 39.42 38.8478C39.4308 38.8275 39.4406 38.8066 39.4495 38.7853C39.5053 38.6506 39.5878 38.5288 39.6921 38.4272C39.6925 38.4267 39.693 38.4262 39.6933 38.426C41.6121 36.5448 42.6967 34.3242 42.6967 31.9596C42.6967 29.594 41.6109 27.3722 39.6875 25.4936C39.687 25.4932 39.6868 25.4929 39.6863 25.4924C39.5986 25.4071 39.5264 25.3076 39.4725 25.1981C39.4658 25.1763 39.4579 25.1547 39.449 25.1334C39.3936 24.9999 39.3661 24.8568 39.368 24.7122C39.368 24.7115 39.368 24.711 39.368 24.7103C39.3951 22.023 38.5921 19.6845 36.9192 18.0116C35.2456 16.338 32.9054 15.5348 30.2165 15.5674C30.216 15.5674 30.2153 15.5674 30.2148 15.5674C30.094 15.5691 29.9736 15.5499 29.8595 15.5111C29.8392 15.5003 29.8183 15.4905 29.797 15.4816C29.6623 15.4257 29.5405 15.3433 29.4389 15.239C29.4384 15.2385 29.4379 15.2381 29.4377 15.2376C27.5565 13.319 25.3359 12.2344 22.9713 12.2344C20.6057 12.2344 18.3839 13.32 16.5054 15.2436C16.5049 15.2438 16.5046 15.2443 16.5042 15.2448C16.4188 15.3325 16.3194 15.4047 16.2098 15.4586Z" fill="#D3934F"/>
<path d="M17.479 28.2148C19.8232 28.2148 21.7236 26.3144 21.7236 23.9702C21.7236 21.626 19.8232 19.7256 17.479 19.7256C15.1348 19.7256 13.2344 21.626 13.2344 23.9702C13.2344 26.3144 15.1348 28.2148 17.479 28.2148Z" fill="#964229"/>
<path d="M46.4438 28.2148C48.7881 28.2148 50.6884 26.3144 50.6884 23.9702C50.6884 21.626 48.7881 19.7256 46.4438 19.7256C44.0996 19.7256 42.1992 21.626 42.1992 23.9702C42.1992 26.3144 44.0996 28.2148 46.4438 28.2148Z" fill="#7D3F2D"/>
<path d="M17.477 41.7859C18.9938 41.7859 20.2234 40.5563 20.2234 39.0395C20.2234 37.5226 18.9938 36.293 17.477 36.293C15.9601 36.293 14.7305 37.5226 14.7305 39.0395C14.7305 40.5563 15.9601 41.7859 17.477 41.7859Z" fill="#964229"/>
<path d="M46.4418 41.7859C47.9586 41.7859 49.1883 40.5563 49.1883 39.0395C49.1883 37.5226 47.9586 36.293 46.4418 36.293C44.925 36.293 43.6953 37.5226 43.6953 39.0395C43.6953 40.5563 44.925 41.7859 46.4418 41.7859Z" fill="#7D3F2D"/>
<path d="M30.223 28.7137C31.7399 28.7137 32.9695 27.484 32.9695 25.9672C32.9695 24.4503 31.7399 23.2207 30.223 23.2207C28.7062 23.2207 27.4766 24.4503 27.4766 25.9672C27.4766 27.484 28.7062 28.7137 30.223 28.7137Z" fill="#964229"/>
<path d="M31.9613 41.2381C33.4782 41.2381 34.7078 40.0084 34.7078 38.4916C34.7078 36.9748 33.4782 35.7451 31.9613 35.7451C30.4445 35.7451 29.2148 36.9748 29.2148 38.4916C29.2148 40.0084 30.4445 41.2381 31.9613 41.2381Z" fill="#964229"/>
<path d="M23.9691 34.7068C25.486 34.7068 26.7156 33.4772 26.7156 31.9604C26.7156 30.4435 25.486 29.2139 23.9691 29.2139C22.4523 29.2139 21.2227 30.4435 21.2227 31.9604C21.2227 33.4772 22.4523 34.7068 23.9691 34.7068Z" fill="#964229"/>
</svg>
