<svg width="100" height="100" viewBox="0 0 100 100" fill="none" xmlns="http://www.w3.org/2000/svg">
<rect width="100" height="100" rx="16" fill="#E6F1FF"/>
<path d="M46 65.496V58.8C46 56.234 47.99 54.216 50.934 53.064C49.0354 52.3579 47.0257 51.9975 45 52C41.22 52 37.728 53.234 34.906 55.32C35.781 57.7947 37.2502 60.0167 39.1845 61.7909C41.1188 63.5652 43.4591 64.8375 46 65.496ZM63.76 58.172C62.97 57.106 60.34 56 57 56C52.988 56 50 57.594 50 58.8V66C52.7757 66.0015 55.504 65.2806 57.9166 63.9081C60.3292 62.5356 62.343 60.5587 63.76 58.172ZM45.1 49C46.2935 49 47.4381 48.5259 48.282 47.682C49.1259 46.8381 49.6 45.6935 49.6 44.5C49.6 43.3065 49.1259 42.1619 48.282 41.318C47.4381 40.4741 46.2935 40 45.1 40C43.9065 40 42.7619 40.4741 41.918 41.318C41.0741 42.1619 40.6 43.3065 40.6 44.5C40.6 45.6935 41.0741 46.8381 41.918 47.682C42.7619 48.5259 43.9065 49 45.1 49ZM57 51C58.0609 51 59.0783 50.5786 59.8284 49.8284C60.5786 49.0783 61 48.0609 61 47C61 45.9391 60.5786 44.9217 59.8284 44.1716C59.0783 43.4214 58.0609 43 57 43C55.9391 43 54.9217 43.4214 54.1716 44.1716C53.4214 44.9217 53 45.9391 53 47C53 48.0609 53.4214 49.0783 54.1716 49.8284C54.9217 50.5786 55.9391 51 57 51ZM50 70C38.954 70 30 61.046 30 50C30 38.954 38.954 30 50 30C61.046 30 70 38.954 70 50C70 61.046 61.046 70 50 70Z" fill="#1F84FF"/>
</svg>
