<svg width="100" height="100" viewBox="0 0 100 100" fill="none" xmlns="http://www.w3.org/2000/svg">
<rect width="100" height="100" rx="16" fill="#ECFFE6"/>
<path d="M38 44H65.876L66.876 40H42V36H69.44C69.744 36 70.044 36.0693 70.3172 36.2027C70.5904 36.336 70.8296 36.5299 71.0167 36.7696C71.2037 37.0092 71.3336 37.2884 71.3966 37.5858C71.4595 37.8832 71.4539 38.1911 71.38 38.486L66.38 58.486C66.2717 58.9185 66.0219 59.3024 65.6704 59.5767C65.3189 59.851 64.8859 60 64.44 60H36C35.4696 60 34.9609 59.7893 34.5858 59.4142C34.2107 59.0391 34 58.5304 34 58V34H30V30H36C36.5304 30 37.0391 30.2107 37.4142 30.5858C37.7893 30.9609 38 31.4696 38 32V44ZM38 72C36.9391 72 35.9217 71.5786 35.1716 70.8284C34.4214 70.0783 34 69.0609 34 68C34 66.9391 34.4214 65.9217 35.1716 65.1716C35.9217 64.4214 36.9391 64 38 64C39.0609 64 40.0783 64.4214 40.8284 65.1716C41.5786 65.9217 42 66.9391 42 68C42 69.0609 41.5786 70.0783 40.8284 70.8284C40.0783 71.5786 39.0609 72 38 72ZM62 72C60.9391 72 59.9217 71.5786 59.1716 70.8284C58.4214 70.0783 58 69.0609 58 68C58 66.9391 58.4214 65.9217 59.1716 65.1716C59.9217 64.4214 60.9391 64 62 64C63.0609 64 64.0783 64.4214 64.8284 65.1716C65.5786 65.9217 66 66.9391 66 68C66 69.0609 65.5786 70.0783 64.8284 70.8284C64.0783 71.5786 63.0609 72 62 72Z" fill="#3DE200"/>
</svg>
