<svg width="48" height="48" viewBox="0 0 48 48" fill="none" xmlns="http://www.w3.org/2000/svg">
<path fill-rule="evenodd" clip-rule="evenodd" d="M21.3715 5.25554C21.2225 5.25554 21.0796 5.31468 20.9741 5.42003C20.8687 5.52556 20.8096 5.66848 20.8096 5.81734V8.5314C20.8096 8.84152 21.0611 9.0932 21.3714 9.0932H26.5681C26.8784 9.0932 27.1299 8.84152 27.1299 8.5314V5.32781C27.1299 5.02902 26.896 4.78255 26.5976 4.76673C26.5653 4.76511 26.5331 4.76349 26.5009 4.76205C23.6211 4.63028 21.5044 5.23109 21.5044 5.23109C21.497 5.23325 21.4898 5.2354 21.4826 5.23774C21.4458 5.24979 21.4082 5.25572 21.3715 5.25554Z" fill="#5B5B81"/>
<path fill-rule="evenodd" clip-rule="evenodd" d="M17.9425 12.147C17.9233 12.3066 17.9734 12.4668 18.08 12.5871C18.1866 12.7072 18.3396 12.776 18.5004 12.776H29.437C29.5977 12.776 29.7507 12.7072 29.8573 12.5871C29.9639 12.4668 30.0139 12.3066 29.9946 12.147L29.8113 10.6254C29.6288 9.10986 28.3429 7.96973 26.8164 7.96973C25.1306 7.96973 22.8065 7.96973 21.1208 7.96973C19.5945 7.96973 18.3085 9.10986 18.1259 10.6254L17.9425 12.147Z" fill="#8BD0F7"/>
<path fill-rule="evenodd" clip-rule="evenodd" d="M21.8178 6.31111C21.9532 6.27425 23.873 5.76711 26.4502 5.88504C27.8216 5.94778 29.3655 6.22823 30.9295 6.81951C30.9403 6.82365 30.9511 6.82724 30.9621 6.83066C32.029 7.1609 33.1634 6.56279 33.4937 5.49601C33.8239 4.42904 33.2258 3.29466 32.1588 2.96441C32.1479 2.96099 32.1369 2.95794 32.1258 2.95524C30.0952 2.46068 28.1401 2.37133 26.4276 2.47255C23.2988 2.65753 21.0352 3.44477 20.9029 3.49169C20.1313 3.74895 19.7103 4.58275 19.9631 5.3574C20.2153 6.13025 21.0442 6.55524 21.8178 6.31111Z" fill="#383856"/>
<path fill-rule="evenodd" clip-rule="evenodd" d="M36.8069 15.9596C36.8069 13.5808 34.8787 11.6523 32.4999 11.6523C27.8779 11.6523 20.065 11.6523 15.443 11.6523C13.0642 11.6523 11.1357 13.5808 11.1357 15.9596C11.1357 22.2582 11.1357 34.8996 11.1357 41.1984C11.1357 43.5772 13.0642 45.5055 15.443 45.5055C20.065 45.5055 27.8779 45.5055 32.4999 45.5055C34.8787 45.5055 36.8069 43.5772 36.8069 41.1984C36.8069 34.8996 36.8069 22.2582 36.8069 15.9596Z" fill="#EDF4FA"/>
<path fill-rule="evenodd" clip-rule="evenodd" d="M36.4346 27.499C36.657 27.4184 36.805 27.2074 36.805 26.9708V23.3304C36.805 23.1749 36.7404 23.0262 36.6268 22.9199C36.513 22.8137 36.3604 22.7594 36.2051 22.7698C31.4345 23.0949 24.7331 24.1845 19.1122 27.4424C18.9492 27.5369 18.8443 27.7068 18.833 27.895C18.8219 28.0831 18.9056 28.2643 19.0563 28.3775C19.3328 28.5854 19.6603 28.7313 20.0206 28.793C20.0217 28.7932 20.0228 28.7934 20.0239 28.7936C20.5387 28.8788 21.0827 28.9564 21.6585 29.022C28.2932 29.7785 33.3389 28.6204 36.4346 27.499Z" fill="#6FC0EE"/>
<path d="M19.5235 18.6212C20.428 18.6212 21.1612 17.888 21.1612 16.9835C21.1612 16.0789 20.428 15.3457 19.5235 15.3457C18.619 15.3457 17.8857 16.0789 17.8857 16.9835C17.8857 17.888 18.619 18.6212 19.5235 18.6212Z" fill="#6FC0EE"/>
<path d="M24.1318 24.5321C25.4763 24.5321 26.5663 23.4422 26.5663 22.0976C26.5663 20.7531 25.4763 19.6631 24.1318 19.6631C22.7872 19.6631 21.6973 20.7531 21.6973 22.0976C21.6973 23.4422 22.7872 24.5321 24.1318 24.5321Z" fill="#6FC0EE"/>
<path fill-rule="evenodd" clip-rule="evenodd" d="M13.3482 25.4885C12.8192 25.2538 12.3395 25.0458 11.8843 24.8854C11.7125 24.8248 11.5217 24.8514 11.373 24.9566C11.2242 25.0619 11.1357 25.2329 11.1357 25.4152V41.1989C11.1357 43.5777 13.0642 45.506 15.443 45.506C20.065 45.506 27.8779 45.506 32.4999 45.506C34.8787 45.506 36.8069 43.5777 36.8069 41.1989V26.9717C36.8069 26.7885 36.7178 26.617 36.5678 26.5118C36.4179 26.4067 36.2261 26.3811 36.0539 26.4435C33.0651 27.5261 28.193 28.6369 21.7878 27.9065C21.2325 27.8432 20.7081 27.7685 20.2113 27.6863C19.6788 27.5946 19.2896 27.1326 19.2898 26.5922C19.2898 24.9471 17.9541 23.6113 16.309 23.6113C15.107 23.6113 14.0724 24.3232 13.6479 25.3665C13.6251 25.4226 13.5801 25.4673 13.5235 25.4903C13.4681 25.513 13.4061 25.5126 13.3509 25.4896L13.3482 25.4885Z" fill="#8BD0F7"/>
<path fill-rule="evenodd" clip-rule="evenodd" d="M32.6357 39.5973V34.8851C32.6357 33.7474 31.7135 32.8252 30.5759 32.8252C27.489 32.8252 20.4515 32.8252 17.3647 32.8252C16.2269 32.8252 15.3047 33.7474 15.3047 34.8851V39.5973C15.3047 40.7349 16.2269 41.6572 17.3647 41.6572C20.4515 41.6572 27.489 41.6572 30.5759 41.6572C31.7135 41.6572 32.6357 40.7349 32.6357 39.5973Z" fill="#EDF4FA"/>
<path fill-rule="evenodd" clip-rule="evenodd" d="M19.7718 36.4634H28.1664C28.4763 36.4634 28.7282 36.2118 28.7282 35.9016C28.7282 35.5915 28.4763 35.3398 28.1664 35.3398H19.7718C19.4616 35.3398 19.21 35.5915 19.21 35.9016C19.21 36.2118 19.4616 36.4634 19.7718 36.4634Z" fill="#383856"/>
<path fill-rule="evenodd" clip-rule="evenodd" d="M19.7718 39.1422H28.1664C28.4763 39.1422 28.7282 38.8903 28.7282 38.5804C28.7282 38.2702 28.4763 38.0186 28.1664 38.0186H19.7718C19.4616 38.0186 19.21 38.2702 19.21 38.5804C19.21 38.8903 19.4616 39.1422 19.7718 39.1422Z" fill="#383856"/>
</svg>
