<svg width="100" height="100" viewBox="0 0 100 100" fill="none" xmlns="http://www.w3.org/2000/svg">
<rect width="100" height="100" rx="16" fill="#FFF2EB"/>
<path d="M60 56.4899V70.234C60 70.4109 59.9531 70.5847 59.8641 70.7375C59.775 70.8904 59.647 71.0169 59.493 71.1042C59.3391 71.1914 59.1648 71.2362 58.9879 71.2341C58.811 71.2319 58.6378 71.1829 58.486 71.0919L50 66L41.514 71.0919C41.3621 71.183 41.1887 71.232 41.0116 71.2341C40.8345 71.2362 40.6601 71.1911 40.5061 71.1037C40.3521 71.0162 40.2241 70.8894 40.1352 70.7362C40.0463 70.5831 39.9996 70.409 40 70.2319V56.4919C37.4123 54.4201 35.532 51.5957 34.6189 48.409C33.7059 45.2223 33.8051 41.8307 34.903 38.7029C36.0009 35.5751 38.0431 32.8654 40.7476 30.9485C43.452 29.0316 46.6851 28.002 50 28.002C53.3149 28.002 56.548 29.0316 59.2524 30.9485C61.9569 32.8654 63.9991 35.5751 65.097 38.7029C66.1949 41.8307 66.2942 45.2223 65.3811 48.409C64.468 51.5957 62.5877 54.4201 60 56.4919V56.4899ZM50 55.9999C53.1826 55.9999 56.2348 54.7357 58.4853 52.4852C60.7357 50.2348 62 47.1825 62 43.9999C62 40.8174 60.7357 37.7651 58.4853 35.5147C56.2348 33.2642 53.1826 31.9999 50 31.9999C46.8174 31.9999 43.7652 33.2642 41.5147 35.5147C39.2643 37.7651 38 40.8174 38 43.9999C38 47.1825 39.2643 50.2348 41.5147 52.4852C43.7652 54.7357 46.8174 55.9999 50 55.9999ZM50 51.9999C47.8783 51.9999 45.8434 51.1571 44.3431 49.6568C42.8429 48.1565 42 46.1217 42 43.9999C42 41.8782 42.8429 39.8434 44.3431 38.3431C45.8434 36.8428 47.8783 35.9999 50 35.9999C52.1217 35.9999 54.1566 36.8428 55.6569 38.3431C57.1571 39.8434 58 41.8782 58 43.9999C58 46.1217 57.1571 48.1565 55.6569 49.6568C54.1566 51.1571 52.1217 51.9999 50 51.9999Z" fill="#FE7223"/>
</svg>
