<svg width="192" height="40" viewBox="0 0 192 40" fill="none" xmlns="http://www.w3.org/2000/svg">
<path d="M55.3574 39.0419V32.0604H56.7538L58.4252 37.0009C58.5733 37.4614 58.6897 37.8068 58.7637 38.0371C58.8378 37.7859 58.9647 37.4091 59.134 36.9171L60.8371 32.0604H62.0854V39.0419H61.1862V33.2014L59.134 39.0419H58.2877L56.2566 33.0967V39.0419H55.3574ZM72.6744 39.0419L75.3825 32.0604H76.4087L79.2754 39.0419H78.2176L77.403 36.9276H74.4305L73.6688 39.0419H72.6744ZM74.7055 36.174H77.1068L76.3769 34.2376C76.1548 33.6514 75.9855 33.1699 75.8692 32.7827C75.774 33.2432 75.647 33.6828 75.4778 34.1329L74.7055 36.174ZM89.9068 39.0419V32.0604H93.0381C93.6622 32.0604 94.1383 32.1233 94.4662 32.2489C94.7941 32.3745 95.0586 32.5943 95.249 32.9187C95.45 33.2328 95.5452 33.5782 95.5452 33.9654C95.5452 34.4574 95.3865 34.8761 95.0586 35.2215C94.7307 35.5564 94.2335 35.7762 93.5564 35.86C93.8103 35.9856 93.9902 36.1007 94.1171 36.2158C94.3921 36.4566 94.6566 36.7706 94.8893 37.1369L96.1164 39.0419H94.9528L94.0113 37.587C93.7468 37.1683 93.5247 36.8439 93.3449 36.6241C93.165 36.4042 93.0064 36.2472 92.8688 36.1635C92.7313 36.0693 92.5938 36.0065 92.4457 35.9751C92.3399 35.9542 92.1707 35.9437 91.9273 35.9437H90.8483V39.0419H89.9068ZM90.8483 35.1482H92.8477C93.2708 35.1482 93.6093 35.0959 93.8421 35.0121C94.0854 34.9284 94.2652 34.7819 94.3921 34.5935C94.5191 34.4051 94.5826 34.1957 94.5826 33.9654C94.5826 33.641 94.4556 33.3688 94.2229 33.149C93.9796 32.9397 93.5988 32.835 93.0698 32.835H90.8483V35.1482ZM106.832 39.0419V32.0604H107.774V35.525L111.275 32.0604H112.534L109.583 34.897L112.661 39.0419H111.434L108.927 35.525L107.774 36.6241V39.0419H106.832ZM123.335 39.0419V32.0604H128.423V32.8873H124.266V35.0226H128.159V35.8495H124.266V38.2255H128.592V39.0419H123.335ZM141.541 39.0419V32.8873H139.224V32.0604H144.809V32.8873H142.482V39.0419H141.541ZM155.8 39.0419V32.0604H156.731V39.0419H155.8ZM168.23 39.0419V32.0604H169.193L172.895 37.5451V32.0604H173.794V39.0419H172.832L169.129 33.5677V39.0419H168.23ZM188.53 36.2996V35.4832H191.513V38.0685C191.059 38.4348 190.583 38.707 190.096 38.8849C189.609 39.0629 189.102 39.1571 188.594 39.1571C187.896 39.1571 187.271 39.0105 186.7 38.7175C186.14 38.4244 185.716 38.0057 185.42 37.4509C185.135 36.8962 184.987 36.2682 184.987 35.5878C184.987 34.9075 185.135 34.2795 185.42 33.6828C185.706 33.0967 186.118 32.6571 186.658 32.3745C187.197 32.0919 187.822 31.9453 188.52 31.9453C189.028 31.9453 189.493 32.029 189.906 32.1965C190.318 32.3535 190.635 32.5838 190.868 32.8769C191.101 33.1699 191.281 33.5468 191.408 34.0178L190.561 34.248C190.456 33.8922 190.329 33.6096 190.17 33.4107C190.011 33.2014 189.789 33.0443 189.493 32.9187C189.207 32.7931 188.879 32.7408 188.53 32.7408C188.097 32.7408 187.737 32.8036 187.42 32.9292C187.113 33.0548 186.859 33.2223 186.669 33.4421C186.478 33.6514 186.33 33.8817 186.224 34.1329C186.044 34.5621 185.96 35.0331 185.96 35.5355C185.96 36.1635 186.066 36.6764 186.277 37.1055C186.499 37.5242 186.806 37.8278 187.219 38.0371C187.642 38.236 188.075 38.3406 188.541 38.3406C188.943 38.3406 189.334 38.2674 189.726 38.1104C190.107 37.9534 190.392 37.7859 190.593 37.608V36.2996H188.53Z" fill="#2B2A29"/>
<path fill-rule="evenodd" clip-rule="evenodd" d="M37.9661 9.71408H24.7959V4.50152H36.3053C37.1622 4.49106 37.5642 4.62713 37.8604 5.21328C38.1248 5.76803 37.9661 8.81392 37.9661 9.71408Z" fill="#FFD580"/>
<path fill-rule="evenodd" clip-rule="evenodd" d="M13.4986 4.22902L12.5889 9.35784L13.8794 9.58811L19.0735 10.4883L25.5581 11.6082C25.8755 9.78699 26.2034 7.96573 26.5313 6.13401C26.7218 5.04544 26.9439 4.49069 26.2457 3.93594C25.7168 3.51726 24.4156 3.48586 23.6328 3.33932L20.4381 2.78457L17.2328 2.22982C16.3866 2.08328 15.0854 1.67507 14.4613 1.95768C13.6467 2.33449 13.6996 3.08811 13.4986 4.22902Z" fill="#89E689"/>
<path fill-rule="evenodd" clip-rule="evenodd" d="M12.6625 27.8428C13.2549 28.6279 12.6625 29.7269 14.1646 30.0304C14.5666 30.1142 15.3388 30.0095 15.7937 29.9572L27.5147 28.7744C28.2869 28.7744 29.165 28.6697 29.9372 28.5755C30.646 28.4813 31.5557 28.3871 32.3279 28.3348C34.4119 28.1987 37.2998 27.8219 39.5213 27.6335C41.9332 27.4346 41.8698 27.2567 42.2294 25.1005L44.4826 11.7028C45.001 8.6464 43.795 9.23255 39.3626 9.23255H32.7722H27.5041H26.1924H13.0222H10.2929H7.57422L8.19835 11.5667C8.4205 12.2994 8.64265 13.0949 8.84364 13.8799L12.6625 27.8428ZM35.0678 14.5079C34.2955 14.7172 34.084 15.2929 34.084 16.1722C34.084 16.9467 34.0311 20.9032 34.1474 21.3324C34.3167 21.929 35.0149 22.4105 35.7871 22.2011C36.0833 22.1174 36.3795 21.8557 36.5276 21.6359C36.8555 21.1335 36.7286 18.7156 36.7286 17.9201C36.7286 17.3445 36.7921 15.8267 36.6651 15.3662C36.4959 14.7591 35.8188 14.2986 35.0678 14.5079ZM19.2741 14.5079C18.4912 14.7172 18.2797 15.2825 18.2797 16.1722C18.2903 16.9467 18.2268 20.9032 18.3431 21.3324C18.6288 22.3372 20.0463 22.6408 20.7233 21.6359C21.0512 21.1335 20.9243 18.7156 20.9243 17.9201C20.9243 17.3445 20.9878 15.8267 20.8608 15.3662C20.6916 14.7591 20.0145 14.2986 19.2741 14.5079ZM27.5041 22.2535C25.7587 22.0755 26.1924 20.3485 26.1924 18.3493C26.1924 16.3501 25.7587 14.6126 27.5041 14.4451C29.2602 14.5079 28.8264 16.5699 28.8264 18.3493C28.8264 20.1287 29.2602 22.1907 27.5041 22.2535Z" fill="url(#paint0_linear_762_2595)"/>
<path fill-rule="evenodd" clip-rule="evenodd" d="M27.5037 32.1552C26.2025 32.1552 14.5979 32.2808 13.9103 32.0505C12.8736 31.7156 12.7044 30.7945 13.7199 30.2606C13.7728 30.2292 13.9103 30.1769 13.9103 30.1769C13.9315 30.1664 13.9526 30.156 13.9738 30.1455L14.1642 30.0304C12.662 29.7268 13.2544 28.6278 12.662 27.8428C11.308 28.2929 10.3136 29.821 10.3877 31.1922C10.4617 32.8041 11.8158 34.2695 13.191 34.5835C13.1804 35.3057 12.5245 36.7606 13.7516 38.3726C16.0578 41.3871 21.0402 39.9635 20.9239 35.7977C20.9133 35.2953 20.7758 35.1697 20.744 34.7615H27.5037H31.6293C31.0581 37.2107 32.063 39.1785 34.3903 39.8484C36.5906 40.4869 38.8227 39.0424 39.3093 36.792C39.8382 34.3637 37.786 32.3017 35.8396 32.1552C34.623 32.061 29.1751 32.1552 27.5037 32.1552ZM16.6396 34.8243C14.9258 35.2848 15.6452 37.7759 17.3483 37.3049C17.9513 37.1375 18.4379 36.4466 18.2263 35.6825C18.0571 35.0755 17.3801 34.6149 16.6396 34.8243ZM35.0779 34.8243C33.3536 35.2848 34.0941 37.7655 35.7867 37.3049C36.3897 37.1375 36.8763 36.4466 36.6647 35.6825C36.4954 35.0755 35.8184 34.6149 35.0779 34.8243Z" fill="#2B2A29"/>
<path fill-rule="evenodd" clip-rule="evenodd" d="M7.57422 9.23233H10.2929C10.2823 8.79271 8.5157 2.69046 8.29355 1.80077C7.94446 0.440059 7.79636 0.000445327 6.41058 0.0109123C5.79703 0.0213793 1.26942 -0.0414226 0.909752 0.0527803C0.433719 0.178384 0.0846281 0.607531 0 1.08901V1.57049C0.0528926 1.8531 0.200992 2.12524 0.454876 2.33458C0.909752 2.70093 1.26942 2.61719 2.0205 2.61719C3.2476 2.61719 4.47471 2.61719 5.7124 2.61719L7.57422 9.23233Z" fill="#2B2A29"/>
<path d="M59.5252 24.3887H59.4935L56.9017 24.3678H56.2459L53.6436 24.3887V24.3678C54.5639 24.2422 55.0928 23.5514 55.2515 22.2953V22.1802C55.2726 22.0755 55.2832 21.929 55.2832 21.7301L55.315 8.23817H55.2832V8.20677C55.2832 7.42174 55.1457 6.80419 54.8495 6.35411C54.5639 5.9145 54.1619 5.65282 53.6436 5.57955V5.54815L61.112 5.48535C62.7411 5.54815 64.0317 5.8831 64.9943 6.49018C66.1685 7.24381 66.7503 8.35331 66.7503 9.82915C66.7503 11.776 65.5126 13.4507 63.0479 14.8533C62.7728 14.9266 62.5824 15.0312 62.4872 15.1464C66.3589 20.7253 70.1143 23.7398 73.7427 24.2108L74.7583 24.3887L69.9768 24.4201C68.0303 24.4411 66.3272 23.6037 64.8674 21.9081C62.8363 19.3122 61.1543 17.2293 59.8214 15.6488C58.954 15.6488 58.2769 15.7011 57.7903 15.7953L57.8855 21.7301C57.8855 22.5256 58.0231 23.1327 58.3193 23.5828C58.6049 24.0224 59.0069 24.2841 59.5252 24.3678V24.3887ZM63.7989 10.0699C63.7989 8.80339 63.471 7.90323 62.8151 7.34848C62.1698 6.77279 61.1437 6.49018 59.7368 6.49018C58.6049 6.49018 57.9913 6.65765 57.9173 6.9926C57.8961 7.07633 57.8855 7.17054 57.8855 7.28567L57.7903 14.4974H58.9857C60.6571 14.4974 61.8842 14.0683 62.6459 13.21C63.4075 12.3517 63.7989 11.305 63.7989 10.0699ZM144.566 24.3887H144.534L141.932 24.3678H141.276L138.684 24.3887V24.3678C139.594 24.2422 140.133 23.5514 140.292 22.2953V22.1802C140.313 22.0755 140.324 21.929 140.324 21.7301L140.356 8.23817H140.324V8.20677C140.324 7.42174 140.176 6.80419 139.89 6.35411C139.605 5.9145 139.192 5.65282 138.684 5.57955V5.54815L146.142 5.48535C147.771 5.54815 149.072 5.8831 150.024 6.49018C151.199 7.24381 151.791 8.35331 151.791 9.82915C151.791 11.776 150.553 13.4507 148.089 14.8533C147.803 14.9266 147.612 15.0312 147.517 15.1464C151.4 20.7253 155.155 23.7398 158.773 24.2108L159.788 24.3887L155.007 24.4201C153.06 24.4411 151.357 23.6037 149.908 21.9081C147.877 19.3122 146.195 17.2293 144.862 15.6488C143.984 15.6488 143.307 15.7011 142.831 15.7953L142.916 21.7301C142.916 22.5256 143.064 23.1327 143.349 23.5828C143.646 24.0224 144.048 24.2841 144.566 24.3678V24.3887ZM148.829 10.0699C148.829 8.80339 148.501 7.90323 147.845 7.34848C147.211 6.77279 146.184 6.49018 144.767 6.49018C143.635 6.49018 143.032 6.65765 142.947 6.9926C142.926 7.07633 142.916 7.17054 142.916 7.28567L142.831 14.4974H144.026C145.698 14.4974 146.914 14.0683 147.687 13.21C148.448 12.3517 148.829 11.305 148.829 10.0699ZM75.9854 24.3678H73.3196L73.2984 24.3469C73.6369 24.2841 73.9014 24.1166 74.0918 23.8549C74.2822 23.5828 74.4832 23.3106 74.7054 23.0385C74.9275 22.7768 75.4353 21.7929 76.2181 20.0973C77.0009 18.4121 77.6039 17.0932 78.0164 16.1407C79.0849 13.5449 80.0052 11.2108 80.788 9.16973C82.7556 13.8066 84.7021 18.2237 86.6274 22.4209C86.8495 23.0071 87.1245 23.4572 87.4631 23.7712C87.8016 24.0957 88.1718 24.2841 88.5632 24.3469V24.3678L85.1569 24.3887C84.5222 22.7454 84.025 21.4684 83.6548 20.5683H77.3712L75.9854 24.3678ZM83.2105 19.5425C83.1682 19.4483 82.269 17.2712 80.5024 13.0216L77.6991 19.7205H83.3057L83.2105 19.5425ZM88.7854 24.3469C89.1662 24.2841 89.473 24.0957 89.6845 23.7607C89.8961 23.4362 90.0019 22.9862 90.0019 22.4L90.0442 12.4145H90.0231V12.3936C90.0231 11.8074 89.9173 11.3573 89.7057 11.0329C89.4941 10.7084 89.1979 10.5095 88.8065 10.4572V10.4258C91.2925 10.363 93.3765 10.3211 95.0479 10.3211C97.5338 10.3211 99.5226 10.9073 101.025 12.09C102.58 13.3042 103.352 14.9789 103.352 17.1037C103.352 19.5739 102.537 21.4475 100.887 22.7245C99.3427 23.9072 97.3645 24.462 94.9632 24.3887C94.4026 24.3887 92.3398 24.3783 88.7854 24.3678V24.3469ZM92.0012 21.751C92.0012 22.4419 92.1917 22.9129 92.5725 23.1432C92.9427 23.3734 93.6832 23.4886 94.8045 23.4886C99.0042 23.4886 101.109 21.458 101.109 17.3863C101.109 13.2728 98.9725 11.2108 94.6988 11.2108H93.1966C92.4032 11.2841 92.0012 11.5039 92.0012 11.8702V21.751ZM121.801 24.3678L119.886 24.3469H119.505C118.924 24.3469 118.236 24.3469 117.464 24.3678V24.3469C117.845 24.2841 118.141 24.0957 118.352 23.7607C118.564 23.4362 118.67 22.9862 118.67 22.4L118.649 18.433C118.649 18.1295 118.617 17.9201 118.543 17.8259C118.469 17.7213 118.299 17.6689 118.035 17.6689H110.429C110.112 17.6689 109.911 17.7108 109.837 17.7945C109.763 17.8678 109.72 18.0667 109.72 18.3911L109.741 22.4C109.741 22.9862 109.858 23.4362 110.069 23.7607C110.281 24.0957 110.577 24.2841 110.958 24.3469V24.3678L109.043 24.3469H108.662C108.081 24.3469 107.393 24.3469 106.621 24.3678V24.3469C107.002 24.2841 107.298 24.0957 107.509 23.7607C107.721 23.4362 107.827 22.9862 107.827 22.4V12.5192H107.806V12.4982C107.806 11.9225 107.7 11.462 107.488 11.1375C107.277 10.813 106.98 10.6246 106.6 10.5618V10.5409H110.979V10.5618C110.598 10.6246 110.302 10.834 110.091 11.2003C109.879 11.5771 109.752 12.1947 109.72 13.0739V15.8372C109.72 16.3291 109.964 16.5804 110.45 16.5804H117.94C118.236 16.5804 118.426 16.549 118.5 16.4966C118.596 16.392 118.649 16.1617 118.649 15.7953L118.67 12.4982H118.649V12.4773C118.649 11.9016 118.543 11.4411 118.331 11.1166C118.12 10.7921 117.823 10.5932 117.443 10.5409V10.52H121.822V10.5409C121.441 10.5932 121.145 10.813 120.933 11.1794C120.722 11.5562 120.595 12.1738 120.563 13.0425V19.3018L120.584 22.4C120.584 22.9862 120.701 23.4362 120.912 23.7607C121.124 24.0957 121.42 24.2841 121.801 24.3469V24.3678ZM125.08 24.3678H122.414L122.393 24.3469C122.732 24.2841 122.996 24.1166 123.187 23.8549C123.377 23.5828 123.589 23.3106 123.811 23.0385C124.022 22.7768 124.53 21.7929 125.313 20.0973C126.106 18.4121 126.699 17.0932 127.111 16.1407C128.18 13.5449 129.111 11.2108 129.893 9.16973C131.861 13.8066 133.808 18.2237 135.733 22.4209C135.944 23.0071 136.23 23.4572 136.569 23.7712C136.907 24.0957 137.267 24.2841 137.669 24.3469V24.3678L134.252 24.3887C133.617 22.7454 133.12 21.4684 132.75 20.5683H126.477L125.08 24.3678ZM132.316 19.5425C132.274 19.4483 131.364 17.2712 129.608 13.0216L126.805 19.7205H132.401L132.316 19.5425ZM161.015 24.3678H158.35L158.329 24.3469C158.667 24.2841 158.931 24.1166 159.122 23.8549C159.312 23.5828 159.524 23.3106 159.746 23.0385C159.958 22.7768 160.465 21.7929 161.248 20.0973C162.042 18.4121 162.634 17.0932 163.047 16.1407C164.115 13.5449 165.046 11.2108 165.829 9.16973C167.796 13.8066 169.743 18.2237 171.668 22.4209C171.88 23.0071 172.165 23.4572 172.504 23.7712C172.842 24.0957 173.202 24.2841 173.604 24.3469V24.3678L170.187 24.3887C169.552 22.7454 169.055 21.4684 168.685 20.5683H162.412L161.015 24.3678ZM168.251 19.5425C168.209 19.4483 167.299 17.2712 165.532 13.0216L162.74 19.7205H168.336L168.251 19.5425ZM182.31 24.3469C181.76 23.499 179.782 20.4636 176.354 15.251L176.375 20.7462V22.4C176.375 22.9862 176.492 23.4362 176.703 23.7607C176.915 24.0957 177.211 24.2841 177.592 24.3469V24.3678H173.932V24.3469C174.313 24.2841 174.609 24.0957 174.831 23.7607C175.043 23.4362 175.148 22.9862 175.148 22.4V20.4845L175.212 12.4773C175.212 11.5353 175.201 10.834 175.17 10.3839H175.233L182.902 21.2905C183.876 19.9403 186.499 16.3396 190.773 10.499V10.52H190.794L190.773 10.5618L190.794 22.3581C190.794 22.9338 190.9 23.3944 191.111 23.7188C191.323 24.0433 191.619 24.2422 192 24.2945V24.3155L190.085 24.2945H189.715C189.123 24.2945 188.446 24.305 187.663 24.3155V24.2945C188.044 24.2422 188.35 24.0433 188.562 23.7188C188.784 23.3944 188.89 22.9338 188.879 22.3581L188.784 14.9684L182.31 24.3469V24.3678H182.289V24.3469H182.31Z" fill="url(#paint1_linear_762_2595)"/>
<defs>
<linearGradient id="paint0_linear_762_2595" x1="7.57422" y1="9.1875" x2="46.5313" y2="13.837" gradientUnits="userSpaceOnUse">
<stop stop-color="#FFAD00"/>
<stop offset="1" stop-color="#FE1300"/>
</linearGradient>
<linearGradient id="paint1_linear_762_2595" x1="53.6436" y1="5.48535" x2="172.558" y2="63.9582" gradientUnits="userSpaceOnUse">
<stop stop-color="#FFAD00"/>
<stop offset="1" stop-color="#FE1300"/>
</linearGradient>
</defs>
</svg>
