<svg width="56" height="56" viewBox="0 0 56 56" fill="none" xmlns="http://www.w3.org/2000/svg">
<rect width="56" height="56" rx="28" fill="url(#paint0_linear_762_2611)"/>
<path d="M19.9998 22.4138L16.7568 19.1718L18.1718 17.7568L21.4138 20.9998H36.6558C36.8117 20.9998 36.9654 21.0362 37.1047 21.1062C37.244 21.1762 37.365 21.2777 37.4581 21.4027C37.5511 21.5278 37.6137 21.6728 37.6407 21.8263C37.6678 21.9798 37.6586 22.1375 37.6138 22.2868L35.2138 30.2868C35.1521 30.4929 35.0255 30.6736 34.853 30.802C34.6804 30.9305 34.471 30.9999 34.2558 30.9998H21.9998V32.9998H32.9998V34.9998H20.9998C20.7346 34.9998 20.4803 34.8945 20.2927 34.7069C20.1052 34.5194 19.9998 34.2651 19.9998 33.9998V22.4138ZM21.9998 22.9998V28.9998H33.5118L35.3118 22.9998H21.9998ZM21.4998 38.9998C21.102 38.9998 20.7205 38.8418 20.4392 38.5605C20.1579 38.2792 19.9998 37.8977 19.9998 37.4998C19.9998 37.102 20.1579 36.7205 20.4392 36.4392C20.7205 36.1579 21.102 35.9998 21.4998 35.9998C21.8977 35.9998 22.2792 36.1579 22.5605 36.4392C22.8418 36.7205 22.9998 37.102 22.9998 37.4998C22.9998 37.8977 22.8418 38.2792 22.5605 38.5605C22.2792 38.8418 21.8977 38.9998 21.4998 38.9998ZM33.4998 38.9998C33.102 38.9998 32.7205 38.8418 32.4392 38.5605C32.1579 38.2792 31.9998 37.8977 31.9998 37.4998C31.9998 37.102 32.1579 36.7205 32.4392 36.4392C32.7205 36.1579 33.102 35.9998 33.4998 35.9998C33.8977 35.9998 34.2792 36.1579 34.5605 36.4392C34.8418 36.7205 34.9998 37.102 34.9998 37.4998C34.9998 37.8977 34.8418 38.2792 34.5605 38.5605C34.2792 38.8418 33.8977 38.9998 33.4998 38.9998Z" fill="white"/>
<defs>
<linearGradient id="paint0_linear_762_2611" x1="0" y1="0" x2="59.4991" y2="4.00404" gradientUnits="userSpaceOnUse">
<stop stop-color="#FFAD00"/>
<stop offset="1" stop-color="#FE1300"/>
</linearGradient>
</defs>
</svg>
