<svg width="48" height="48" viewBox="0 0 48 48" fill="none" xmlns="http://www.w3.org/2000/svg">
<path fill-rule="evenodd" clip-rule="evenodd" d="M15.0415 6.70482C14.7967 6.84594 14.6945 7.14725 14.8035 7.4081C14.85 7.51956 14.8335 7.66015 14.7945 7.8126C14.7055 8.16064 14.4709 8.54446 14.13 8.88532C13.8066 9.20873 13.4444 9.43597 13.1102 9.5352C12.9112 9.59435 12.7283 9.63372 12.6118 9.53466C12.4883 9.42968 12.3256 9.38311 12.1655 9.40702C12.0051 9.43093 11.8629 9.5228 11.7753 9.65907C11.4393 10.182 11.1882 10.7309 11.0304 11.2984C10.9833 11.4676 11.018 11.649 11.1242 11.7889C11.2304 11.9287 11.396 12.0107 11.5715 12.0107H36.6084C36.7839 12.0107 36.9495 11.9287 37.0557 11.7889C37.162 11.649 37.1967 11.4676 37.1496 11.2984C36.7025 9.69089 35.4987 8.22752 33.745 7.07768C33.6123 6.99084 33.4491 6.96388 33.2955 7.00379C33.142 7.0437 33.0126 7.14671 32.939 7.28729C32.7665 7.61772 32.4204 7.8437 32.0218 7.8437C31.4512 7.8437 30.9879 7.38042 30.9879 6.80981C30.9879 6.65592 31.0214 6.50994 31.0818 6.37889C31.1476 6.23579 31.1505 6.07165 31.0895 5.92657C31.0286 5.78132 30.9096 5.66842 30.7612 5.6152C29.7629 5.25691 28.6784 4.97592 27.5312 4.78698C27.2642 4.74293 27.0039 4.89556 26.9119 5.14977C26.8394 5.3495 26.7452 5.5521 26.63 5.75183C26.3336 6.26527 25.9526 6.66761 25.5675 6.8943C25.3144 7.04334 25.0708 7.13862 24.8797 7.02824C24.7247 6.93889 24.6757 6.74221 24.6571 6.51714C24.6278 6.15992 24.7141 5.73044 24.9002 5.29377C24.9736 5.12136 24.9563 4.92397 24.854 4.76702C24.7519 4.61008 24.5782 4.51444 24.3909 4.51192C24.2909 4.51048 24.1906 4.50977 24.09 4.50977C22.315 4.50977 20.6226 4.72424 19.0803 5.11147C18.9078 5.1548 18.7659 5.27723 18.698 5.44172C18.63 5.60604 18.6438 5.793 18.7355 5.94545C18.8806 6.18743 18.9734 6.42833 18.9904 6.64298C18.9991 6.74941 18.9998 6.8481 18.9367 6.91138C18.8297 7.01817 18.6509 6.9797 18.4569 6.92595C18.116 6.83156 17.7432 6.60055 17.4113 6.26869C17.3522 6.20954 17.2964 6.14914 17.2439 6.08783C17.085 5.90159 16.8236 5.83992 16.5982 5.93502C16.0472 6.16783 15.5269 6.42527 15.0415 6.70482Z" fill="#FFEFE0"/>
<path fill-rule="evenodd" clip-rule="evenodd" d="M10.3395 17.8637C10.07 17.7429 9.75287 17.8513 9.6139 18.112C9.38289 18.5451 9.21552 19.0197 9.12527 19.5248C8.14136 24.8753 7.35467 30.2305 7.98568 35.5541L7.98604 35.5567C8.04303 36.0385 8.13705 36.5079 8.26505 36.962C7.06972 37.8161 6.29004 39.2156 6.29004 40.7957C6.29004 43.3949 8.40024 45.5052 10.9996 45.5052C12.6528 45.5052 14.1083 44.6517 14.9486 43.3614C15.6227 43.5205 16.3246 43.6043 17.044 43.6043C21.3148 43.6043 26.6273 43.6043 30.898 43.6043C31.6175 43.6043 32.3193 43.5205 32.9937 43.3616C33.8338 44.6517 35.2892 45.5052 36.9424 45.5052C39.5416 45.5052 41.652 43.3949 41.652 40.7957C41.652 39.2154 40.8723 37.8161 39.6768 36.9618C39.8048 36.5077 39.8988 36.0385 39.956 35.5567L39.9564 35.5541C40.5874 30.2305 39.8005 24.8753 38.8213 19.5241C38.7379 19.0556 38.5868 18.611 38.3797 18.2017C38.2503 17.9455 37.9486 17.8283 37.6802 17.9295C37.3642 18.0487 37.0266 18.1114 36.6823 18.1114H11.4969C11.094 18.1114 10.7001 18.0255 10.3395 17.8637Z" fill="#E8A882"/>
<path fill-rule="evenodd" clip-rule="evenodd" d="M40.6325 14.8384C40.6325 13.7903 40.2161 12.7851 39.4751 12.0441C38.7341 11.3031 37.7289 10.8867 36.6808 10.8867C30.5386 10.8867 17.6376 10.8867 11.4954 10.8867C10.4473 10.8867 9.44219 11.3031 8.70116 12.0441C7.96013 12.7851 7.54377 13.7903 7.54395 14.8384C7.54395 14.9865 7.54395 15.1353 7.54395 15.2837C7.54377 16.3316 7.96013 17.3367 8.70116 18.0777C9.44219 18.8188 10.4473 19.2351 11.4954 19.2351C17.6376 19.2351 30.5386 19.2351 36.6808 19.2351C37.7289 19.2351 38.7341 18.8188 39.4751 18.0777C40.2161 17.3367 40.6325 16.3316 40.6325 15.2837V14.8384Z" fill="#9D6F49"/>
<path fill-rule="evenodd" clip-rule="evenodd" d="M28.0612 24.5362C27.8113 24.6204 27.6536 24.867 27.682 25.1291C27.7126 25.4117 27.5805 25.6999 27.3203 25.8547C26.776 26.1787 26.274 26.5208 25.8102 26.8774C25.6011 27.0382 25.5319 27.3229 25.6443 27.5617C25.7388 27.7628 25.8861 27.9417 26.0802 28.0753C26.0899 28.0819 26.0998 28.0882 26.1099 28.0943C26.9804 28.6157 28.2019 28.7931 29.4424 28.4607C30.6826 28.1283 31.6518 27.3643 32.1455 26.4778C32.1512 26.4672 32.1568 26.4564 32.162 26.4456C32.4338 25.8736 32.2501 25.1886 31.7282 24.8296C31.7185 24.823 31.7086 24.8167 31.6986 24.8106C30.8281 24.2892 29.6067 24.1118 28.3661 24.4442C28.2625 24.4719 28.1608 24.5028 28.0612 24.5362Z" fill="#FAE6D6"/>
<path fill-rule="evenodd" clip-rule="evenodd" d="M23.1708 29.5618C23.1316 29.5927 23.0969 29.6288 23.0672 29.6691C22.7141 30.1491 22.406 30.6339 22.1374 31.1157C22.0758 31.2265 22.0533 31.355 22.0738 31.4801C22.129 31.8169 22.317 32.1288 22.6155 32.3341C22.6252 32.3407 22.635 32.347 22.6451 32.3531C23.5156 32.8745 24.7372 33.0519 25.9776 32.7195C27.2179 32.3871 28.187 31.6231 28.6807 30.7366C28.6865 30.726 28.692 30.7154 28.6972 30.7044C28.9691 30.1324 28.7853 29.4474 28.2635 29.0886C28.2537 29.0818 28.2439 29.0755 28.2338 29.0694C27.3633 28.548 26.1419 28.3706 24.9013 28.703C24.2359 28.8813 23.6477 29.1835 23.1708 29.5618Z" fill="#FAE6D6"/>
<path fill-rule="evenodd" clip-rule="evenodd" d="M20.438 36.4655C20.4195 36.5128 20.4072 36.5622 20.4018 36.6125C20.3675 36.9325 20.3485 37.2144 20.3384 37.4496C20.3346 37.5398 20.3526 37.6295 20.3907 37.7113C20.5327 38.0153 20.7921 38.2618 21.1281 38.381C21.1391 38.3849 21.1504 38.3885 21.1618 38.3918C22.1376 38.6701 23.3633 38.5254 24.4754 37.8832C25.5875 37.241 26.3258 36.2521 26.5732 35.2682C26.576 35.2565 26.5787 35.2446 26.5809 35.2328C26.6954 34.6098 26.3405 33.9959 25.7437 33.7841C25.7325 33.7802 25.7214 33.7768 25.7099 33.7735C24.7342 33.4951 23.5085 33.64 22.3963 34.2819C21.4465 34.8304 20.7682 35.6319 20.438 36.4655Z" fill="#FAE6D6"/>
<path fill-rule="evenodd" clip-rule="evenodd" d="M18.4715 33.0676C18.4298 33.203 18.441 33.3491 18.5025 33.4768C18.604 33.6873 18.6885 33.9133 18.7525 34.1522C18.995 35.0574 18.8951 35.9514 18.5213 36.5928C18.4803 36.6433 18.423 36.6647 18.3671 36.657C18.2114 36.6354 18.0539 36.68 17.9326 36.7798C17.8114 36.8796 17.7373 37.0257 17.7287 37.1825C17.6859 37.9595 17.7194 38.4294 17.7212 38.4533C17.7947 39.4838 18.6907 40.2611 19.7213 40.1881C20.7522 40.1152 21.5301 39.219 21.4571 38.188C21.4572 38.1905 20.9904 30.9295 27.8939 26.8208C28.782 26.2921 29.074 25.1419 28.5452 24.2538C28.0167 23.3657 26.8665 23.0737 25.9782 23.6023C25.6164 23.8178 25.2703 24.04 24.939 24.2683C24.8208 24.3496 24.7383 24.4733 24.7083 24.6135C24.5792 25.2183 24.3078 25.7439 23.9374 26.1119C23.875 26.1576 23.7985 26.1581 23.7411 26.1184C23.7037 26.0823 23.6705 26.047 23.6381 26.0107C23.5369 25.8967 23.3936 25.829 23.2415 25.8225C23.0892 25.8162 22.9409 25.8721 22.8306 25.9771C22.178 26.5989 21.6079 27.2438 21.1097 27.8982C21.0208 28.0152 20.981 28.1624 20.9994 28.3082C21.0892 29.027 20.9665 29.7099 20.665 30.2268C20.6177 30.285 20.544 30.3054 20.4784 30.2818C20.4315 30.2557 20.389 30.2297 20.3473 30.202C20.2134 30.1134 20.0482 30.0864 19.893 30.1276C19.7379 30.1687 19.6079 30.2743 19.5356 30.4175C19.0761 31.3286 18.7308 32.2241 18.4715 33.0676Z" fill="#985428"/>
<path fill-rule="evenodd" clip-rule="evenodd" d="M23.0014 20.6668C22.9924 20.6746 22.9838 20.6825 22.9753 20.6908C22.2463 21.3966 21.7588 22.5304 21.7588 23.8147C21.7588 25.0988 22.2462 26.2327 22.9746 26.9388C22.9832 26.9473 22.9922 26.9554 23.0014 26.9633C23.4837 27.3739 24.1928 27.3735 24.6746 26.9626C24.6836 26.9548 24.6922 26.9469 24.7006 26.9387C25.4296 26.2329 25.9172 25.099 25.9172 23.8147C25.9172 22.5306 25.4298 21.3967 24.7013 20.6906C24.6927 20.6821 24.6837 20.674 24.6746 20.6661C24.1924 20.2555 23.4832 20.2559 23.0014 20.6668Z" fill="#FAE6D6"/>
<path fill-rule="evenodd" clip-rule="evenodd" d="M18.3521 25.2081C18.3454 25.2178 18.3391 25.2277 18.333 25.238C17.8117 26.1084 17.6342 27.3298 17.9667 28.5703C18.2991 29.8107 19.0631 30.7797 19.9496 31.2734C19.9602 31.2793 19.971 31.2847 19.9818 31.2899C20.5538 31.5619 21.2387 31.378 21.5978 30.8561C21.6044 30.8464 21.6107 30.8365 21.6168 30.8265C22.1382 29.956 22.3156 28.7346 21.9832 27.4942C21.6508 26.2537 20.8867 25.2847 20.0003 24.7911C19.9897 24.7851 19.9789 24.7795 19.9681 24.7743C19.396 24.5025 18.7111 24.6864 18.3521 25.2081Z" fill="#FAE6D6"/>
<path fill-rule="evenodd" clip-rule="evenodd" d="M16.2076 31.5754C16.2009 31.5851 16.1945 31.5949 16.1885 31.605C15.667 32.4755 15.4898 33.6971 15.8222 34.9375C16.1544 36.1778 16.9186 37.1469 17.8051 37.6406C17.8155 37.6464 17.8263 37.6519 17.8373 37.6571C18.4093 37.929 19.0941 37.7452 19.4531 37.2234C19.4597 37.2136 19.4662 37.2038 19.4721 37.1937C19.9937 36.3232 20.1709 35.1018 19.8387 33.8612C19.5063 32.6209 18.7421 31.6519 17.8556 31.1581C17.8452 31.1523 17.8344 31.1468 17.8234 31.1416C17.2514 30.8697 16.5666 31.0535 16.2076 31.5754Z" fill="#FAE6D6"/>
<path fill-rule="evenodd" clip-rule="evenodd" d="M27.4213 2.62464C27.0074 2.38572 26.488 2.369 25.9457 2.59174C25.313 2.85152 24.6286 3.45952 24.1362 4.31237C23.6438 5.16523 23.4595 6.06195 23.5509 6.7397C23.6291 7.32073 23.9034 7.76226 24.3173 8.00118C24.7311 8.2401 25.2506 8.25682 25.793 8.03426C26.4257 7.77431 27.1099 7.16649 27.6023 6.31345C28.0947 5.4606 28.2791 4.56406 28.1878 3.88613C28.1094 3.30527 27.8353 2.86374 27.4214 2.62482L27.4213 2.62464Z" fill="#F7CDA6"/>
<path fill-rule="evenodd" clip-rule="evenodd" d="M15.9715 3.94885C15.6731 4.24728 15.5362 4.68539 15.6022 5.19901C15.6763 5.77519 16.0225 6.47182 16.614 7.06328C17.2056 7.65492 17.9021 8.00098 18.4784 8.07505C18.9919 8.14121 19.43 8.0044 19.7284 7.70597C20.0268 7.40755 20.1637 6.96943 20.0977 6.456C20.0236 5.87964 19.6775 5.18319 19.0859 4.59155C18.4943 3.99991 17.7978 3.65384 17.2215 3.57977C16.708 3.51379 16.2699 3.65042 15.9715 3.94885Z" fill="#F7CDA6"/>
<path d="M32.0198 8.96731C33.2113 8.96731 34.1773 8.00137 34.1773 6.80983C34.1773 5.61828 33.2113 4.65234 32.0198 4.65234C30.8282 4.65234 29.8623 5.61828 29.8623 6.80983C29.8623 8.00137 30.8282 8.96731 32.0198 8.96731Z" fill="#F7CDA6"/>
<path fill-rule="evenodd" clip-rule="evenodd" d="M15.5654 6.56505C15.267 6.2668 14.8289 6.12999 14.3154 6.19597C13.7391 6.27004 13.0424 6.6161 12.451 7.20775C11.8593 7.79939 11.5133 8.49584 11.4392 9.07219C11.3731 9.58563 11.5099 10.0237 11.8083 10.3222C12.1067 10.6206 12.5448 10.7574 13.0583 10.6914C13.6346 10.6172 14.3311 10.2711 14.9227 9.67966C15.5144 9.08802 15.8604 8.39139 15.9345 7.81521C16.0005 7.30177 15.8638 6.86348 15.5654 6.56505Z" fill="#F7CDA6"/>
</svg>
