<svg width="239" height="62" viewBox="0 0 239 62" fill="none" xmlns="http://www.w3.org/2000/svg">
<path d="M28.6663 24.483L24.8828 20.7006L26.5336 19.0498L30.316 22.8333H48.0983C48.2802 22.8333 48.4595 22.8758 48.622 22.9574C48.7845 23.039 48.9257 23.1575 49.0343 23.3033C49.1428 23.4492 49.2158 23.6185 49.2474 23.7975C49.2789 23.9766 49.2682 24.1606 49.216 24.3348L46.416 33.6681C46.3439 33.9086 46.1963 34.1194 45.9949 34.2692C45.7936 34.4191 45.5493 34.5 45.2983 34.5H30.9996V36.8333H43.833V39.1666H29.833C29.5236 39.1666 29.2268 39.0437 29.008 38.8249C28.7892 38.6061 28.6663 38.3094 28.6663 38V24.483ZM30.9996 25.1666V32.1666H44.4303L46.5303 25.1666H30.9996ZM30.4163 43.8333C29.9522 43.8333 29.5071 43.6489 29.1789 43.3207C28.8507 42.9926 28.6663 42.5474 28.6663 42.0833C28.6663 41.6192 28.8507 41.1741 29.1789 40.8459C29.5071 40.5177 29.9522 40.3333 30.4163 40.3333C30.8804 40.3333 31.3256 40.5177 31.6537 40.8459C31.9819 41.1741 32.1663 41.6192 32.1663 42.0833C32.1663 42.5474 31.9819 42.9926 31.6537 43.3207C31.3256 43.6489 30.8804 43.8333 30.4163 43.8333ZM44.4163 43.8333C43.9522 43.8333 43.5071 43.6489 43.1789 43.3207C42.8507 42.9926 42.6663 42.5474 42.6663 42.0833C42.6663 41.6192 42.8507 41.1741 43.1789 40.8459C43.5071 40.5177 43.9522 40.3333 44.4163 40.3333C44.8804 40.3333 45.3256 40.5177 45.6537 40.8459C45.9819 41.1741 46.1663 41.6192 46.1663 42.0833C46.1663 42.5474 45.9819 42.9926 45.6537 43.3207C45.3256 43.6489 44.8804 43.8333 44.4163 43.8333Z" fill="#1D1D1D"/>
<path d="M86.388 42L77.456 35.028V32.76H82.356C83.3453 32.76 84.1387 32.5453 84.736 32.116C85.352 31.6867 85.744 31.0613 85.912 30.24H77.456V28.14H85.912C85.744 27.3187 85.352 26.7027 84.736 26.292C84.1387 25.8627 83.3453 25.648 82.356 25.648L77.456 25.62V23.52H91.12V25.676L86.668 25.648C87.0973 25.816 87.452 26.124 87.732 26.572C88.0307 27.02 88.236 27.5427 88.348 28.14H91.12V30.24H88.376C88.264 31.0987 87.956 31.864 87.452 32.536C86.9667 33.208 86.332 33.74 85.548 34.132C84.764 34.524 83.8493 34.7293 82.804 34.748H80.956L90.532 42H86.388ZM108.774 42.28C106.552 42.28 104.807 41.4773 103.538 39.872C102.287 38.248 101.662 35.8773 101.662 32.76C101.662 29.6427 102.287 27.2813 103.538 25.676C104.807 24.052 106.552 23.24 108.774 23.24C111.014 23.24 112.759 24.052 114.01 25.676C115.279 27.2813 115.914 29.6427 115.914 32.76C115.914 35.8773 115.279 38.248 114.01 39.872C112.759 41.4773 111.014 42.28 108.774 42.28ZM108.774 39.732C109.67 39.732 110.416 39.48 111.014 38.976C111.63 38.4533 112.087 37.6787 112.386 36.652C112.703 35.6067 112.862 34.3093 112.862 32.76C112.862 31.2107 112.703 29.9227 112.386 28.896C112.087 27.8507 111.63 27.076 111.014 26.572C110.416 26.0493 109.67 25.788 108.774 25.788C107.878 25.788 107.122 26.0493 106.506 26.572C105.908 27.076 105.46 27.8507 105.162 28.896C104.863 29.9227 104.714 31.2107 104.714 32.76C104.714 34.3093 104.863 35.6067 105.162 36.652C105.46 37.6787 105.908 38.4533 106.506 38.976C107.122 39.48 107.878 39.732 108.774 39.732ZM125.796 42.28C123.574 42.28 121.829 41.4773 120.56 39.872C119.309 38.248 118.684 35.8773 118.684 32.76C118.684 29.6427 119.309 27.2813 120.56 25.676C121.829 24.052 123.574 23.24 125.796 23.24C128.036 23.24 129.781 24.052 131.032 25.676C132.301 27.2813 132.936 29.6427 132.936 32.76C132.936 35.8773 132.301 38.248 131.032 39.872C129.781 41.4773 128.036 42.28 125.796 42.28ZM125.796 39.732C126.692 39.732 127.438 39.48 128.036 38.976C128.652 38.4533 129.109 37.6787 129.408 36.652C129.725 35.6067 129.884 34.3093 129.884 32.76C129.884 31.2107 129.725 29.9227 129.408 28.896C129.109 27.8507 128.652 27.076 128.036 26.572C127.438 26.0493 126.692 25.788 125.796 25.788C124.9 25.788 124.144 26.0493 123.528 26.572C122.93 27.076 122.482 27.8507 122.184 28.896C121.885 29.9227 121.736 31.2107 121.736 32.76C121.736 34.3093 121.885 35.6067 122.184 36.652C122.482 37.6787 122.93 38.4533 123.528 38.976C124.144 39.48 124.9 39.732 125.796 39.732ZM137.315 38.22C137.949 38.22 138.453 38.4067 138.827 38.78C139.219 39.1347 139.415 39.62 139.415 40.236C139.415 40.852 139.219 41.3467 138.827 41.72C138.453 42.0933 137.949 42.28 137.315 42.28C136.661 42.28 136.139 42.0933 135.747 41.72C135.373 41.3467 135.187 40.852 135.187 40.236C135.187 39.62 135.373 39.1347 135.747 38.78C136.139 38.4067 136.661 38.22 137.315 38.22ZM148.82 42.28C146.599 42.28 144.853 41.4773 143.584 39.872C142.333 38.248 141.708 35.8773 141.708 32.76C141.708 29.6427 142.333 27.2813 143.584 25.676C144.853 24.052 146.599 23.24 148.82 23.24C151.06 23.24 152.805 24.052 154.056 25.676C155.325 27.2813 155.96 29.6427 155.96 32.76C155.96 35.8773 155.325 38.248 154.056 39.872C152.805 41.4773 151.06 42.28 148.82 42.28ZM148.82 39.732C149.716 39.732 150.463 39.48 151.06 38.976C151.676 38.4533 152.133 37.6787 152.432 36.652C152.749 35.6067 152.908 34.3093 152.908 32.76C152.908 31.2107 152.749 29.9227 152.432 28.896C152.133 27.8507 151.676 27.076 151.06 26.572C150.463 26.0493 149.716 25.788 148.82 25.788C147.924 25.788 147.168 26.0493 146.552 26.572C145.955 27.076 145.507 27.8507 145.208 28.896C144.909 29.9227 144.76 31.2107 144.76 32.76C144.76 34.3093 144.909 35.6067 145.208 36.652C145.507 37.6787 145.955 38.4533 146.552 38.976C147.168 39.48 147.924 39.732 148.82 39.732ZM165.842 42.28C163.621 42.28 161.875 41.4773 160.606 39.872C159.355 38.248 158.73 35.8773 158.73 32.76C158.73 29.6427 159.355 27.2813 160.606 25.676C161.875 24.052 163.621 23.24 165.842 23.24C168.082 23.24 169.827 24.052 171.078 25.676C172.347 27.2813 172.982 29.6427 172.982 32.76C172.982 35.8773 172.347 38.248 171.078 39.872C169.827 41.4773 168.082 42.28 165.842 42.28ZM165.842 39.732C166.738 39.732 167.485 39.48 168.082 38.976C168.698 38.4533 169.155 37.6787 169.454 36.652C169.771 35.6067 169.93 34.3093 169.93 32.76C169.93 31.2107 169.771 29.9227 169.454 28.896C169.155 27.8507 168.698 27.076 168.082 26.572C167.485 26.0493 166.738 25.788 165.842 25.788C164.946 25.788 164.19 26.0493 163.574 26.572C162.977 27.076 162.529 27.8507 162.23 28.896C161.931 29.9227 161.782 31.2107 161.782 32.76C161.782 34.3093 161.931 35.6067 162.23 36.652C162.529 37.6787 162.977 38.4533 163.574 38.976C164.19 39.48 164.946 39.732 165.842 39.732Z" fill="#1D1D1D"/>
<rect x="46" y="4" width="20" height="20" rx="10" fill="url(#paint0_linear_762_5698)"/>
<path d="M55.508 19.14C54.248 19.14 53.2913 18.7387 52.638 17.936C51.994 17.1333 51.672 15.948 51.672 14.38C51.672 12.812 51.994 11.6267 52.638 10.824C53.2913 10.0213 54.248 9.62 55.508 9.62C56.768 9.62 57.72 10.0213 58.364 10.824C59.0173 11.6267 59.344 12.812 59.344 14.38C59.344 15.948 59.0173 17.1333 58.364 17.936C57.72 18.7387 56.768 19.14 55.508 19.14ZM55.508 17.264C55.8533 17.264 56.1333 17.1707 56.348 16.984C56.5627 16.788 56.7167 16.48 56.81 16.06C56.9127 15.6307 56.964 15.0707 56.964 14.38C56.964 13.6893 56.9127 13.134 56.81 12.714C56.7167 12.2847 56.5627 11.9767 56.348 11.79C56.1333 11.594 55.8533 11.496 55.508 11.496C55.172 11.496 54.892 11.594 54.668 11.79C54.4533 11.9767 54.2947 12.2847 54.192 12.714C54.0987 13.134 54.052 13.6893 54.052 14.38C54.052 15.0707 54.0987 15.6307 54.192 16.06C54.2947 16.48 54.4533 16.788 54.668 16.984C54.892 17.1707 55.172 17.264 55.508 17.264Z" fill="white"/>
<defs>
<linearGradient id="paint0_linear_762_5698" x1="46" y1="4" x2="67.2497" y2="5.43001" gradientUnits="userSpaceOnUse">
<stop stop-color="#FFAD00"/>
<stop offset="1" stop-color="#FE1300"/>
</linearGradient>
</defs>
</svg>
