<svg width="96" height="96" viewBox="0 0 96 96" fill="none" xmlns="http://www.w3.org/2000/svg">
<g filter="url(#filter0_f_762_5550)">
<rect x="32" y="32" width="32" height="32" rx="16" fill="#FF7852"/>
</g>
<rect x="24" y="16" width="48" height="48" rx="24" fill="#FF5A2C"/>
<path d="M41.3334 35.3447L38.6309 32.643L39.81 31.4639L42.5117 34.1664H55.2134C55.3433 34.1664 55.4713 34.1967 55.5874 34.255C55.7035 34.3133 55.8043 34.3979 55.8819 34.5021C55.9594 34.6063 56.0116 34.7272 56.0341 34.8551C56.0566 34.983 56.049 35.1144 56.0117 35.2389L54.0117 41.9055C53.9602 42.0773 53.8548 42.2278 53.711 42.3349C53.5671 42.4419 53.3926 42.4997 53.2134 42.4997H43V44.1664H52.1667V45.833H42.1667C41.9457 45.833 41.7337 45.7452 41.5774 45.589C41.4212 45.4327 41.3334 45.2207 41.3334 44.9997V35.3447ZM43 35.833V40.833H52.5934L54.0934 35.833H43ZM42.5834 49.1664C42.2518 49.1664 41.9339 49.0347 41.6995 48.8002C41.4651 48.5658 41.3334 48.2479 41.3334 47.9164C41.3334 47.5848 41.4651 47.2669 41.6995 47.0325C41.9339 46.7981 42.2518 46.6664 42.5834 46.6664C42.9149 46.6664 43.2328 46.7981 43.4672 47.0325C43.7017 47.2669 43.8334 47.5848 43.8334 47.9164C43.8334 48.2479 43.7017 48.5658 43.4672 48.8002C43.2328 49.0347 42.9149 49.1664 42.5834 49.1664ZM52.5834 49.1664C52.2518 49.1664 51.9339 49.0347 51.6995 48.8002C51.4651 48.5658 51.3334 48.2479 51.3334 47.9164C51.3334 47.5848 51.4651 47.2669 51.6995 47.0325C51.9339 46.7981 52.2518 46.6664 52.5834 46.6664C52.9149 46.6664 53.2328 46.7981 53.4672 47.0325C53.7017 47.2669 53.8334 47.5848 53.8334 47.9164C53.8334 48.2479 53.7017 48.5658 53.4672 48.8002C53.2328 49.0347 52.9149 49.1664 52.5834 49.1664Z" fill="white"/>
<defs>
<filter id="filter0_f_762_5550" x="0" y="0" width="96" height="96" filterUnits="userSpaceOnUse" color-interpolation-filters="sRGB">
<feFlood flood-opacity="0" result="BackgroundImageFix"/>
<feBlend mode="normal" in="SourceGraphic" in2="BackgroundImageFix" result="shape"/>
<feGaussianBlur stdDeviation="16" result="effect1_foregroundBlur_762_5550"/>
</filter>
</defs>
</svg>
