<svg width="105" height="24" viewBox="0 0 105 24" fill="none" xmlns="http://www.w3.org/2000/svg">
<path d="M47.536 20.24C45.632 20.24 44.136 19.552 43.048 18.176C41.976 16.784 41.44 14.752 41.44 12.08C41.44 9.408 41.976 7.384 43.048 6.008C44.136 4.616 45.632 3.92 47.536 3.92C49.456 3.92 50.952 4.616 52.024 6.008C53.112 7.384 53.656 9.408 53.656 12.08C53.656 14.752 53.112 16.784 52.024 18.176C50.952 19.552 49.456 20.24 47.536 20.24ZM47.536 18.056C48.304 18.056 48.944 17.84 49.456 17.408C49.984 16.96 50.376 16.296 50.632 15.416C50.904 14.52 51.04 13.408 51.04 12.08C51.04 10.752 50.904 9.648 50.632 8.768C50.376 7.872 49.984 7.208 49.456 6.776C48.944 6.328 48.304 6.104 47.536 6.104C46.768 6.104 46.12 6.328 45.592 6.776C45.08 7.208 44.696 7.872 44.44 8.768C44.184 9.648 44.056 10.752 44.056 12.08C44.056 13.408 44.184 14.52 44.44 15.416C44.696 16.296 45.08 16.96 45.592 17.408C46.12 17.84 46.768 18.056 47.536 18.056ZM59.4623 20V9.128C59.4623 8.808 59.4623 8.48 59.4623 8.144C59.4783 7.792 59.4943 7.424 59.5103 7.04C58.9663 7.568 58.3423 8.024 57.6383 8.408C56.9503 8.776 56.2383 9.04 55.5023 9.2L55.0223 6.968C55.3583 6.92 55.7503 6.808 56.1983 6.632C56.6463 6.456 57.1103 6.232 57.5903 5.96C58.0703 5.688 58.5103 5.4 58.9103 5.096C59.3103 4.776 59.6223 4.464 59.8463 4.16H62.0063V20H59.4623Z" fill="#1D1D1D"/>
<rect width="24" height="24" rx="3.75" fill="#D8FFD8"/>
<rect x="6.75" y="11.25" width="10.5" height="2.25" rx="1.125" fill="#5EAC5E"/>
<rect x="81" width="24" height="24" rx="3.75" fill="#D8FFD8"/>
<rect x="87.75" y="11.25" width="10.5" height="2.25" rx="1.125" fill="#5EAC5E"/>
<rect x="94.125" y="7.125" width="10.5" height="2.25" rx="1.125" transform="rotate(90 94.125 7.125)" fill="#5EAC5E"/>
</svg>
