<svg width="32" height="32" viewBox="0 0 32 32" fill="none" xmlns="http://www.w3.org/2000/svg">
<path d="M22.0003 4C26.051 4 29.3337 7.33333 29.3337 12C29.3337 21.3333 19.3337 26.6667 16.0003 28.6667C12.667 26.6667 2.66699 21.3333 2.66699 12C2.66699 7.33333 6.00033 4 10.0003 4C12.4803 4 14.667 5.33333 16.0003 6.66667C17.3337 5.33333 19.5203 4 22.0003 4ZM17.2457 24.8053C18.4203 24.064 19.4803 23.3267 20.4723 22.5373C24.447 19.3773 26.667 15.924 26.667 12C26.667 8.85333 24.6177 6.66667 22.0003 6.66667C20.5657 6.66667 19.0137 7.42667 17.8857 8.552L16.0003 10.4373L14.115 8.552C12.987 7.42667 11.435 6.66667 10.0003 6.66667C7.41366 6.66667 5.33366 8.87467 5.33366 12C5.33366 15.9253 7.55499 19.3773 11.527 22.5373C12.5203 23.3267 13.5803 24.064 14.755 24.804C15.1537 25.056 15.5483 25.2973 16.0003 25.5667C16.4523 25.2973 16.847 25.056 17.2457 24.8053Z" fill="#FF5959"/>
</svg>
